<?xml version="1.0" encoding="utf-8"?>
<!-- Generator: Adobe Illustrator 16.0.2, SVG Export Plug-In . SVG Version: 6.00 Build 0)  -->
<!DOCTYPE svg PUBLIC "-//W3C//DTD SVG 1.1//EN" "http://www.w3.org/Graphics/SVG/1.1/DTD/svg11.dtd">
<svg version="1.1" id="Layer_1" xmlns="http://www.w3.org/2000/svg" xmlns:xlink="http://www.w3.org/1999/xlink" x="0px" y="0px"
	 width="411.667px" height="316.667px" viewBox="0 0 411.667 316.667" enable-background="new 0 0 411.667 316.667"
	 xml:space="preserve">
<g display="none">
	<defs>
		<rect id="SVGID_1_" x="-856" y="-883.835" width="2047" height="1535"/>
	</defs>
	<clipPath id="SVGID_2_" display="inline">
		<use xlink:href="#SVGID_1_"  overflow="visible"/>
	</clipPath>
	
		<linearGradient id="SVGID_3_" gradientUnits="userSpaceOnUse" x1="-889.6504" y1="654.001" x2="-888.6509" y2="654.001" gradientTransform="matrix(2048 0 0 -2048 1821148.375 1339278)">
		<stop  offset="0" style="stop-color:#0ABF53"/>
		<stop  offset="0.0012" style="stop-color:#0ABF53"/>
		<stop  offset="1" style="stop-color:#20CBD4"/>
	</linearGradient>
	<rect x="-856" y="-883.835" display="inline" clip-path="url(#SVGID_2_)" fill="url(#SVGID_3_)" width="2047" height="1535"/>
</g>
<text transform="matrix(1 0 0 1 -239.4053 -340.2954)"><tspan x="0" y="0" fill="#FFFFFF" font-family="'Fakt-SemiBold'" font-size="95" letter-spacing="-3">W</tspan><tspan x="77.234" y="0" fill="#FFFFFF" font-family="'Fakt-SemiBold'" font-size="95">el</tspan><tspan x="147.058" y="0" fill="#FFFFFF" font-family="'Fakt-SemiBold'" font-size="95">c</tspan><tspan x="190.568" y="0" fill="#FFFFFF" font-family="'Fakt-SemiBold'" font-size="95">ome &lt;Name&gt;</tspan></text>
<text transform="matrix(1 0 0 1 167.0054 -283.4854)" fill="#FFFFFF" font-family="'Fakt-SemiBold'" font-size="95"> </text>
<text transform="matrix(1 0 0 1 -190.1172 -218.4648)"><tspan x="0" y="0" fill="#FFFFFF" font-family="'Fakt-Blond'" font-size="50">P</tspan><tspan x="26.25" y="0" fill="#FFFFFF" font-family="'Fakt-Blond'" font-size="50">l</tspan><tspan x="37.95" y="0" fill="#FFFFFF" font-family="'Fakt-Blond'" font-size="50">e</tspan><tspan x="63.199" y="0" fill="#FFFFFF" font-family="'Fakt-Blond'" font-size="50">ase </tspan><tspan x="142.748" y="0" fill="#FFFFFF" font-family="'Fakt-Blond'" font-size="50">c</tspan><tspan x="165.647" y="0" fill="#FFFFFF" font-family="'Fakt-Blond'" font-size="50">oll</tspan><tspan x="216.497" y="0" fill="#FFFFFF" font-family="'Fakt-Blond'" font-size="50">e</tspan><tspan x="242.046" y="0" fill="#FFFFFF" font-family="'Fakt-Blond'" font-size="50">c</tspan><tspan x="264.746" y="0" fill="#FFFFFF" font-family="'Fakt-Blond'" font-size="50">t </tspan><tspan x="291.896" y="0" fill="#FFFFFF" font-family="'Fakt-Blond'" font-size="50">y</tspan><tspan x="315.095" y="0" fill="#FFFFFF" font-family="'Fakt-Blond'" font-size="50">our </tspan><tspan x="397.044" y="0" fill="#FFFFFF" font-family="'Fakt-Blond'" font-size="50">c</tspan><tspan x="419.794" y="0" fill="#FFFFFF" font-family="'Fakt-Blond'" font-size="50">a</tspan><tspan x="443.894" y="0" fill="#FFFFFF" font-family="'Fakt-Blond'" font-size="50">r</tspan><tspan x="459.443" y="0" fill="#FFFFFF" font-family="'Fakt-Blond'" font-size="50">d and item</tspan></text>
<text transform="matrix(1 0 0 1 -90.917 -88.9648)" fill="#FFFFFF" font-family="'Fakt-SemiBold'" font-size="50">&lt;0000 000 0000</text>
<text transform="matrix(1 0 0 1 271.8784 -88.9648)" fill="#FFFFFF" font-family="'Fakt-SemiBold'" font-size="50"> 0000</text>
<text transform="matrix(1 0 0 1 396.478 -88.9648)" fill="#FFFFFF" font-family="'Fakt-Blond'" font-size="50">&gt;</text>
<g>
	<defs>
		<rect id="SVGID_4_" x="-857" y="-884.835" width="2048" height="1536"/>
	</defs>
	<clipPath id="SVGID_5_">
		<use xlink:href="#SVGID_4_"  overflow="visible"/>
	</clipPath>
	<path clip-path="url(#SVGID_5_)" fill="#FFFFFF" d="M133.275,103.016l-37.256,4.13h-0.08c-3.733,0.398-7.07,2.066-9.771,4.529
		c-2.621,2.462-4.607,5.799-5.401,9.611L70.28,165.217l35.51-3.894l1.906-0.237c7.467-0.795,13.505-6.515,15.173-14.141
		L133.275,103.016z M105.79,152.268l-1.51,0.159c0,0-16.206,1.827-22.879,2.542c1.748-7.229,7.468-30.902,7.468-30.902
		c1.032-4.528,4.608-7.785,8.898-8.261c0,0,18.032-1.986,24.307-2.702c-0.715,3.019-2.223,9.136-3.574,15.015
		c-0.953,3.973-1.907,7.943-2.622,10.963c-0.715,2.938-1.192,4.925-1.192,4.925C113.733,148.534,110.159,151.87,105.79,152.268"/>
	<path clip-path="url(#SVGID_5_)" fill="#FFFFFF" d="M95.939,107.067"/>
	<path clip-path="url(#SVGID_5_)" fill="#FFFFFF" d="M193.412,96.343l-37.338,4.131c-7.465,0.794-13.502,6.514-15.172,14.14
		l-10.486,44.01l35.509-3.893l1.906-0.238c7.389-0.874,13.506-6.514,15.174-14.14L193.412,96.343z M164.496,145.912
		c-0.16,0-16.205,1.748-22.879,2.542c1.746-7.229,7.467-30.901,7.467-30.901c1.033-4.527,4.607-7.785,8.898-8.262h0.078
		c0.875-0.08,18.113-1.985,24.23-2.7c-0.717,3.098-2.146,9.135-3.576,15.014c-1.906,8.022-3.813,15.808-3.813,15.808
		c-1.033,4.528-4.607,7.785-8.896,8.263L164.496,145.912z"/>
	<path clip-path="url(#SVGID_5_)" fill="#FFFFFF" d="M253.07,89.749l-37.336,4.131l0.158,1.43l-0.158-1.43
		c-7.389,0.795-13.506,6.514-15.174,14.14l-10.484,44.01l35.508-3.893l1.906-0.238c7.389-0.874,13.506-6.514,15.174-14.14
		L253.07,89.749z M221.533,102.142c3.496-0.396,8.816-0.953,13.426-1.509c2.779-0.318,5.322-0.556,6.99-0.795
		c-0.715,3.098-2.145,9.136-3.574,15.094c-1.906,8.023-3.814,15.808-3.814,15.808c-1.031,4.528-4.607,7.785-8.896,8.263l-1.51,0.159
		c0,0-5.879,0.635-11.836,1.35c-4.211,0.477-8.5,0.953-10.963,1.192c1.748-7.229,7.467-30.902,7.467-30.902
		c1.033-4.528,4.607-7.785,8.898-8.262C217.64,102.619,219.15,102.46,221.533,102.142"/>
	<path clip-path="url(#SVGID_5_)" fill="#FFFFFF" d="M407.976,258.558l-75.943-62.995c-1.432-13.664-11.678-91.276-66.729-137.986
		c-24.547-20.575-55.131-32.569-87.145-34.08C172.359,9.595,158.22,1.095,143.207,2.524c-15.016,1.43-27.328,12.393-30.426,27.169
		c-1.986,0.556-3.892,1.271-5.879,1.827c-0.158,0.079-0.238,0.079-0.396,0.079c-26.772,7.785-50.524,23.594-67.842,45.438
		C-7.57,135.983,4.981,220.585,5.537,224.16c0.398,2.304,1.906,4.29,4.052,5.163c2.144,0.954,4.686,0.636,6.594-0.714
		c5.877-3.575,12.71-5.482,19.621-5.402c7.308,0.397,14.298,2.701,20.416,6.752c0.158,0.636,0.476,1.271,0.874,1.827
		c2.621,3.495,61.565,82.379,113.2,82.379c2.303,0,4.607-0.158,6.91-0.477c19.781-2.86,41.309-12.075,64.107-21.846
		c35.908-15.411,76.66-32.809,118.525-28.599l42.658,7.229c3.018,0.556,6.037-1.032,7.309-3.893
		C411.076,263.801,410.361,260.543,407.976,258.558 M146.382,15.949c6.039,0,11.838,2.622,15.809,7.15
		c-4.924,0.079-9.93,0.239-15.014,0.715c-6.514,0.556-12.789,1.43-18.907,2.542C132.084,19.843,138.996,15.949,146.382,15.949
		 M35.883,209.702c-6.116,0-12.155,1.112-17.874,3.178c-1.827-23.037-2.7-84.047,31.379-127.5
		c10.168-12.948,22.958-23.515,37.495-31.141l0.397-0.159c1.668-0.873,3.257-1.668,5.005-2.462l1.271-0.636l19.462-7.149
		c11.519-3.337,23.435-5.561,35.431-6.594c29.947-3.416,60.295,2.225,87.064,16.206c11.678,4.369,24.707,17.874,24.707,17.874
		c41.785,38.29,54.256,97.869,57.514,119.317c-5.959-0.477-14.855-1.111-25.658-1.589l-18.271-0.556
		c-25.66-0.636-51.398,0.397-76.977,2.939c-29.314,3.575-58.389,8.737-87.145,15.569l-20.576,5.006
		c-11.916,3.019-20.971,5.48-25.421,6.752C55.425,213.197,45.812,210.1,35.883,209.702 M361.664,249.819
		c-45.836-4.607-88.258,13.504-125.674,29.551c-21.924,9.374-42.738,18.271-60.691,20.894
		c-34.398,5.005-81.504-44.089-102.317-70.146c41.07-11.438,83.015-19.938,125.276-25.341c40.99-3.893,82.299-3.972,123.289-0.318
		l58.309,48.3L361.664,249.819z"/>
	<path clip-path="url(#SVGID_5_)" fill="#FFFFFF" d="M26.082-637.41c1.508-5.862,4.444-8.204,10.404-8.243
		c2.242-0.015,4.492,0.095,6.727-0.033c1.931-0.111,2.671,0.546,2.609,2.542c-0.122,3.901-0.074,7.808-0.019,11.712
		c0.056,4.094,4.986,6.726,8.508,4.521c0.434-0.272,0.718-1.111,0.722-1.69c0.047-6.894,0.094-13.79-0.011-20.684
		c-0.036-2.43-1.65-3.671-4.394-3.685c-7.062-0.033-14.124-0.092-21.183,0.033c-2.211,0.039-2.96-0.656-2.807-2.842
		c0.167-2.398,0.093-4.817,0.022-7.224c-0.046-1.528,0.61-2.037,2.078-2.033c11.797,0.031,23.595-0.103,35.389,0.066
		c7.129,0.102,10.971,4.277,10.983,11.389c0.022,12.045-0.041,24.091,0.05,36.136c0.017,2.155-0.564,2.872-2.794,2.853
		c-11.796-0.101-23.593-0.042-35.388-0.049c-6.214-0.005-9.442-2.583-10.923-8.654C25.961-623.682,25.985-637.031,26.082-637.41"/>
	<path clip-path="url(#SVGID_5_)" fill="#FFFFFF" d="M170.972-607.707c1.082-6.932,1.082-6.932-5.287-6.932
		c-4.318,0-8.637,0.024-12.955-0.007c-6.131-0.043-10.361-4.237-10.371-10.316c-0.023-12.456,0.029-24.913-0.047-37.369
		c-0.014-2.035,0.564-2.786,2.668-2.73c4.896,0.127,9.801,0.118,14.697,0.002c2.031-0.047,2.746,0.563,2.729,2.674
		c-0.094,10.38-0.107,20.761,0.033,31.139c0.02,1.374,0.781,3.603,1.717,3.922c2.006,0.685,4.352,0.456,6.551,0.372
		c0.223-0.008,0.547-1.582,0.551-2.43c0.037-10.878,0.098-21.758-0.029-32.635c-0.029-2.461,0.764-3.129,3.123-3.052
		c4.895,0.159,9.799,0.099,14.697,0.021c1.727-0.027,2.328,0.591,2.322,2.319c-0.047,19.929-0.002,39.859-0.076,59.788
		c-0.021,5.317-4.002,9.252-9.346,9.29c-12.207,0.089-24.414,0.016-36.621,0.08c-1.816,0.009-2.539-0.572-2.473-2.437
		c0.109-3.069,0.127-6.149-0.006-9.215c-0.086-2.023,0.727-2.541,2.631-2.519c7.473,0.086,14.947,0.035,22.422,0.035H170.972z"/>
	<path clip-path="url(#SVGID_5_)" fill="#FFFFFF" d="M133.155-650.425c0,10.878-0.072,21.757,0.055,32.633
		c0.029,2.552-0.777,3.234-3.272,3.208c-11.624-0.123-23.25-0.048-34.875-0.057c-6.906-0.005-11.003-4.084-11.018-10.996
		c-0.021-9.3-0.011-18.601-0.004-27.9c0.006-7.271,3.834-11.227,11.139-11.47c2.157-0.071,4.323,0.078,6.476-0.041
		c1.856-0.101,2.447,0.608,2.436,2.449c-0.068,10.13-0.036,20.261-0.031,30.391c0.002,4.908,3.621,7.316,8.219,5.42
		c0.427-0.176,0.837-0.808,0.929-1.29c0.168-0.885,0.116-1.817,0.116-2.729c0.005-17.355,0.055-34.71-0.052-52.064
		c-0.015-2.56,0.755-3.293,3.257-3.191c4.643,0.189,9.301,0.145,13.947,0.014c2.108-0.059,2.721,0.724,2.708,2.741
		C133.119-672.347,133.154-661.386,133.155-650.425"/>
	<path clip-path="url(#SVGID_5_)" fill="#FFFFFF" d="M258.894-639.856c0-7.306,0.088-14.614-0.051-21.917
		c-0.045-2.424,0.523-3.34,3.154-3.308c11.291,0.142,22.582,0.129,33.873,0.039c8.781-0.069,12.285,5.27,12.129,12.032
		c-0.275,11.866-0.129,23.743-0.029,35.615c0.018,2.217-0.672,2.866-2.844,2.802c-4.893-0.144-9.797-0.124-14.691-0.007
		c-1.973,0.047-2.576-0.609-2.563-2.567c0.08-10.294,0.021-20.59,0.051-30.885c0.006-1.83-0.066-3.857-2.021-4.37
		c-2.006-0.528-4.23-0.388-6.334-0.221c-0.35,0.028-0.805,1.688-0.811,2.597c-0.061,9.547-0.039,19.096-0.041,28.644
		c-0.002,6.764,0,6.764-6.828,6.764c-3.488,0-6.979-0.097-10.461,0.037c-1.992,0.076-2.586-0.662-2.564-2.589
		C258.943-624.745,258.894-632.301,258.894-639.856"/>
	<path clip-path="url(#SVGID_5_)" fill="#FFFFFF" d="M200.642-643.313c0-6.397,0.064-12.796-0.037-19.191
		c-0.031-1.994,0.674-2.562,2.6-2.551c11.717,0.069,23.432,0.022,35.145,0.039c8.105,0.011,11.748,5.409,11.314,11.498
		c-0.24,3.39,0,6.811-0.066,10.216c-0.098,5.027-3.875,9.02-8.879,9.295c-2.982,0.164-5.98,0.043-8.971,0.122
		c-1.607,0.043-2.197-0.625-2.17-2.229c0.068-4.236,0.045-8.474,0.012-12.711c-0.021-2.828-1.25-4.102-4.104-4.138
		c-5.859-0.076-4.748-0.178-4.795,4.503c-0.059,5.898-0.029,11.797-0.006,17.696c0.012,2.959,1.1,4.076,4.045,4.088
		c7.311,0.031,14.623,0.058,21.934-0.02c1.822-0.02,2.551,0.529,2.457,2.415c-0.127,2.569-0.07,5.15-0.018,7.724
		c0.029,1.377-0.512,1.934-1.908,1.931c-12.379-0.028-24.76,0.091-37.137-0.071c-5.504-0.073-9.354-4.364-9.396-9.923
		c-0.047-6.231-0.012-12.462-0.012-18.693H200.642z"/>
</g>
</svg>
