<?xml version="1.0" encoding="utf-8"?>
<!-- Generator: Adobe Illustrator 16.0.0, SVG Export Plug-In . SVG Version: 6.00 Build 0)  -->
<!DOCTYPE svg PUBLIC "-//W3C//DTD SVG 1.1//EN" "http://www.w3.org/Graphics/SVG/1.1/DTD/svg11.dtd">
<svg version="1.1" id="Layer_1" xmlns="http://www.w3.org/2000/svg" xmlns:xlink="http://www.w3.org/1999/xlink" x="0px" y="0px"
	 width="595.28px" height="841.89px" viewBox="0 0 595.28 841.89" enable-background="new 0 0 595.28 841.89" xml:space="preserve">
<path fill="#FFFFFF" d="M503.977,521.393l-75.943-62.995c-1.432-13.664-11.678-91.276-66.729-137.986
	c-24.547-20.575-55.131-32.569-87.145-34.08c-5.8-13.901-19.939-22.401-34.953-20.972c-15.015,1.43-27.327,12.393-30.426,27.169
	c-1.986,0.556-3.892,1.271-5.879,1.827c-0.158,0.079-0.238,0.079-0.396,0.079c-26.772,7.785-50.524,23.594-67.842,45.438
	c-46.233,58.945-33.682,143.547-33.126,147.122c0.398,2.304,1.906,4.29,4.052,5.163c2.144,0.954,4.686,0.636,6.594-0.714
	c5.877-3.575,12.71-5.482,19.621-5.402c7.308,0.397,14.298,2.701,20.416,6.752c0.158,0.636,0.476,1.271,0.874,1.827
	c2.621,3.495,61.565,82.379,113.2,82.379c2.304,0,4.607-0.158,6.911-0.477c19.781-2.86,41.309-12.075,64.107-21.846
	c35.907-15.411,76.659-32.809,118.524-28.599l42.658,7.229c3.019,0.556,6.038-1.032,7.309-3.893
	C507.075,526.636,506.36,523.378,503.977,521.393 M242.383,278.784c6.038,0,11.837,2.622,15.808,7.15
	c-4.924,0.079-9.929,0.239-15.013,0.715c-6.515,0.556-12.79,1.43-18.908,2.542C228.084,282.678,234.995,278.784,242.383,278.784
	 M131.883,472.537c-6.116,0-12.155,1.112-17.874,3.178c-1.827-23.037-2.7-84.047,31.379-127.5
	c10.168-12.948,22.958-23.515,37.495-31.141l0.397-0.159c1.668-0.873,3.257-1.668,5.005-2.462l1.271-0.636l19.462-7.149
	c11.519-3.337,23.435-5.561,35.43-6.594c29.948-3.416,60.295,2.225,87.065,16.206c11.678,4.369,24.706,17.874,24.706,17.874
	c41.785,38.29,54.256,97.869,57.514,119.317c-5.958-0.477-14.854-1.111-25.658-1.589l-18.271-0.556
	c-25.659-0.636-51.397,0.397-76.977,2.939c-29.313,3.575-58.388,8.737-87.144,15.569l-20.576,5.006
	c-11.916,3.019-20.971,5.48-25.421,6.752C151.425,476.032,141.812,472.935,131.883,472.537 M457.664,512.654
	c-45.837-4.607-88.258,13.504-125.674,29.551c-21.925,9.374-42.738,18.271-60.691,20.894
	c-34.398,5.005-81.505-44.089-102.318-70.146c41.07-11.438,83.014-19.938,125.276-25.341c40.991-3.893,82.299-3.972,123.29-0.318
	l58.309,48.3L457.664,512.654z"/>
<path fill="#FFFFFF" d="M360.604,397.366c-0.017-0.118-0.045-0.247-0.092-0.392c-2.781-8.793,0,0-8.447-25.331
	c-1.568-4.698-2.997-8.477-3.638-9.669c-0.039-0.113-0.234-0.352-0.24-0.355c-0.176-0.15-0.412-0.236-0.66-0.203
	c-0.43,0.058-0.738,0.431-0.726,0.853l0.001,0.002l-0.004,0.002v0.002l0.01,0.223c0.054,1.339,0.574,14.819,0.613,15.481
	c0.054,0.93-0.015,5.888-0.914,6.972c-0.717,0.864-1.942,2.134-3.492,3.744c-0.561,0.581-1.16,1.201-1.784,1.854
	c-0.631,0.662-1.388,1.053-2.25,1.168c-0.976,0.131-1.888-0.12-2.459-0.344c-2.144-1.131-5.133-2.661-8.521-4.372h0.03
	c-0.093-0.043-0.188-0.088-0.28-0.129c-2.138-1.081-4.427-2.228-6.759-3.396c-10.514-5.683-21.105-12.1-32.18-13.771
	c-4.212-0.637-8.189-0.105-11.813,1.122c-1.096,0.354-1.891,0.687-2.313,0.878c-2.094,0.851-3.813,1.848-5.264,2.901
	c-4.412,2.933-6.702,7.149-10.046,9.48l-0.559,0.074c-3.837-1.37-7.153-4.838-12.181-6.509c-1.681-0.635-3.597-1.147-5.841-1.417
	c-0.46-0.075-1.315-0.188-2.463-0.24c-3.823-0.231-7.799,0.299-11.696,2.021c-10.247,4.52-18.78,13.493-27.433,21.737
	c-1.946,1.74-3.851,3.447-5.631,5.053c-0.078,0.063-0.155,0.131-0.236,0.196l0.027-0.007c-2.818,2.54-5.301,4.801-7.072,6.456
	c-0.494,0.366-1.308,0.847-2.284,0.979c-0.861,0.114-1.695-0.063-2.475-0.537c-0.771-0.467-1.515-0.906-2.21-1.32
	c-1.919-1.146-3.433-2.05-4.351-2.695c-1.154-0.81-2.52-5.577-2.713-6.486c-0.134-0.65-3.172-13.794-3.474-15.1l-0.051-0.217v-0.002
	l-0.001-0.002v-0.002c-0.1-0.411-0.496-0.689-0.924-0.632c-0.252,0.034-0.455,0.178-0.585,0.37
	c-0.005,0.005-0.131,0.285-0.142,0.405c-0.301,1.319-0.688,5.339-0.967,10.284c-1.501,26.661-1.124,17.446-1.501,26.661
	c-0.007,0.152,0.001,0.284,0.016,0.402c0,0,0.005,0.007,0.013,0.02c0.019,0.608,0.552,1.02,0.967,1.132
	c8.841,2.337,17.697,4.628,26.56,6.873c0.746,0.191,1.459,0.375,2.117,0.541c0.858,0.217,1.87,0.017,2.734-0.255
	c2.599-0.824,5.141-1.863,7.749-2.663c6.643-2.043,12.998-5.119,20.008-5.872c5.348-0.581,10.623-1.571,15.962-2.469
	c0,0,1.43-0.262,2.046-0.61c6.244-3.544,12.462-7.138,18.707-10.68c0.192-0.108,0.404-0.192,0.665-0.234l0.026-0.004
	c0.264-0.026,0.489-0.002,0.707,0.052c6.953,1.777,13.896,3.612,20.854,5.393c0.686,0.174,2.135,0.051,2.135,0.051
	c4.722-0.469,9.416-0.859,14.084-1.515c0.85-0.116,1.7-0.238,2.549-0.373c0.267-0.041,0.533-0.075,0.801-0.111
	c6.498-0.756,12.979,0.391,19.463,0.602c2.727,0.087,5.451,0.422,8.178,0.535c0.517,0.017,1.072,0,1.597-0.099
	c0.601-0.047,1.196-0.177,1.691-0.452c8.597-4.844,17.173-9.744,25.72-14.685c0.372-0.218,0.781-0.755,0.635-1.346
	C360.602,397.374,360.604,397.366,360.604,397.366"/>
<path fill="#FFFFFF" d="M503.977,521.393l-75.943-62.995c-1.432-13.664-11.678-91.276-66.729-137.986
	c-24.547-20.575-55.131-32.569-87.145-34.08c-5.8-13.901-19.939-22.401-34.953-20.972c-15.015,1.43-27.327,12.393-30.426,27.169
	c-1.986,0.556-3.892,1.271-5.879,1.827c-0.158,0.079-0.238,0.079-0.396,0.079c-26.772,7.785-50.524,23.594-67.842,45.438
	c-46.233,58.945-33.682,143.547-33.126,147.122c0.398,2.304,1.906,4.29,4.052,5.163c2.144,0.954,4.686,0.636,6.594-0.714
	c5.877-3.575,12.71-5.482,19.621-5.402c7.308,0.397,14.298,2.701,20.416,6.752c0.158,0.636,0.476,1.271,0.874,1.827
	c2.621,3.495,61.565,82.379,113.2,82.379c2.304,0,4.607-0.158,6.911-0.477c19.781-2.86,41.309-12.075,64.107-21.846
	c35.907-15.411,76.659-32.809,118.524-28.599l42.658,7.229c3.019,0.556,6.038-1.032,7.309-3.893
	C507.075,526.636,506.36,523.378,503.977,521.393 M242.383,278.784c6.038,0,11.837,2.622,15.808,7.15
	c-4.924,0.079-9.929,0.239-15.013,0.715c-6.515,0.556-12.79,1.43-18.908,2.542C228.084,282.678,234.995,278.784,242.383,278.784
	 M131.883,472.537c-6.116,0-12.155,1.112-17.874,3.178c-1.827-23.037-2.7-84.047,31.379-127.5
	c10.168-12.948,22.958-23.515,37.495-31.141l0.397-0.159c1.668-0.873,3.257-1.668,5.005-2.462l1.271-0.636l19.462-7.149
	c11.519-3.337,23.435-5.561,35.43-6.594c29.948-3.416,60.295,2.225,87.065,16.206c11.678,4.369,24.706,17.874,24.706,17.874
	c41.785,38.29,54.256,97.869,57.514,119.317c-5.958-0.477-14.854-1.111-25.658-1.589l-18.271-0.556
	c-25.659-0.636-51.397,0.397-76.977,2.939c-29.313,3.575-58.388,8.737-87.144,15.569l-20.576,5.006
	c-11.916,3.019-20.971,5.48-25.421,6.752C151.425,476.032,141.812,472.935,131.883,472.537 M457.664,512.654
	c-45.837-4.607-88.258,13.504-125.674,29.551c-21.925,9.374-42.738,18.271-60.691,20.894
	c-34.398,5.005-81.505-44.089-102.318-70.146c41.07-11.438,83.014-19.938,125.276-25.341c40.991-3.893,82.299-3.972,123.29-0.318
	l58.309,48.3L457.664,512.654z"/>
<path fill="#FFFFFF" d="M360.604,397.366c-0.017-0.118-0.045-0.247-0.092-0.392c-2.781-8.793,0,0-8.447-25.331
	c-1.568-4.698-2.997-8.477-3.638-9.669c-0.039-0.113-0.234-0.352-0.24-0.355c-0.176-0.15-0.412-0.236-0.66-0.203
	c-0.43,0.058-0.738,0.431-0.726,0.853l0.001,0.002l-0.004,0.002v0.002l0.01,0.223c0.054,1.339,0.574,14.819,0.613,15.481
	c0.054,0.93-0.015,5.888-0.914,6.972c-0.717,0.864-1.942,2.134-3.492,3.744c-0.561,0.581-1.16,1.201-1.784,1.854
	c-0.631,0.662-1.388,1.053-2.25,1.168c-0.976,0.131-1.888-0.12-2.459-0.344c-2.144-1.131-5.133-2.661-8.521-4.372h0.03
	c-0.093-0.043-0.188-0.088-0.28-0.129c-2.138-1.081-4.427-2.228-6.759-3.396c-10.514-5.683-21.105-12.1-32.18-13.771
	c-4.212-0.637-8.189-0.105-11.813,1.122c-1.096,0.354-1.891,0.687-2.313,0.878c-2.094,0.851-3.813,1.848-5.264,2.901
	c-4.412,2.933-6.702,7.149-10.046,9.48l-0.559,0.074c-3.837-1.37-7.153-4.838-12.181-6.509c-1.681-0.635-3.597-1.147-5.841-1.417
	c-0.46-0.075-1.315-0.188-2.463-0.24c-3.823-0.231-7.799,0.299-11.696,2.021c-10.247,4.52-18.78,13.493-27.433,21.737
	c-1.946,1.74-3.851,3.447-5.631,5.053c-0.078,0.063-0.155,0.131-0.236,0.196l0.027-0.007c-2.818,2.54-5.301,4.801-7.072,6.456
	c-0.494,0.366-1.308,0.847-2.284,0.979c-0.861,0.114-1.695-0.063-2.475-0.537c-0.771-0.467-1.515-0.906-2.21-1.32
	c-1.919-1.146-3.433-2.05-4.351-2.695c-1.154-0.81-2.52-5.577-2.713-6.486c-0.134-0.65-3.172-13.794-3.474-15.1l-0.051-0.217v-0.002
	l-0.001-0.002v-0.002c-0.1-0.411-0.496-0.689-0.924-0.632c-0.252,0.034-0.455,0.178-0.585,0.37
	c-0.005,0.005-0.131,0.285-0.142,0.405c-0.301,1.319-0.688,5.339-0.967,10.284c-1.501,26.661-1.124,17.446-1.501,26.661
	c-0.007,0.152,0.001,0.284,0.016,0.402c0,0,0.005,0.007,0.013,0.02c0.019,0.608,0.552,1.02,0.967,1.132
	c8.841,2.337,17.697,4.628,26.56,6.873c0.746,0.191,1.459,0.375,2.117,0.541c0.858,0.217,1.87,0.017,2.734-0.255
	c2.599-0.824,5.141-1.863,7.749-2.663c6.643-2.043,12.998-5.119,20.008-5.872c5.348-0.581,10.623-1.571,15.962-2.469
	c0,0,1.43-0.262,2.046-0.61c6.244-3.544,12.462-7.138,18.707-10.68c0.192-0.108,0.404-0.192,0.665-0.234l0.026-0.004
	c0.264-0.026,0.489-0.002,0.707,0.052c6.953,1.777,13.896,3.612,20.854,5.393c0.686,0.174,2.135,0.051,2.135,0.051
	c4.722-0.469,9.416-0.859,14.084-1.515c0.85-0.116,1.7-0.238,2.549-0.373c0.267-0.041,0.533-0.075,0.801-0.111
	c6.498-0.756,12.979,0.391,19.463,0.602c2.727,0.087,5.451,0.422,8.178,0.535c0.517,0.017,1.072,0,1.597-0.099
	c0.601-0.047,1.196-0.177,1.691-0.452c8.597-4.844,17.173-9.744,25.72-14.685c0.372-0.218,0.781-0.755,0.635-1.346
	C360.602,397.374,360.604,397.366,360.604,397.366"/>
<path fill="#FFFFFF" stroke="#2BB673" stroke-miterlimit="10" d="M503.977,521.393l-75.943-62.995
	c-1.432-13.664-11.678-91.276-66.729-137.986c-24.547-20.575-55.131-32.569-87.145-34.08c-5.8-13.901-19.939-22.401-34.953-20.972
	c-15.015,1.43-27.327,12.393-30.426,27.169c-1.986,0.556-3.892,1.271-5.879,1.827c-0.158,0.079-0.238,0.079-0.396,0.079
	c-26.772,7.785-50.524,23.594-67.842,45.438c-46.233,58.945-33.682,143.547-33.126,147.122c0.398,2.304,1.906,4.29,4.052,5.163
	c2.144,0.954,4.686,0.636,6.594-0.714c5.877-3.575,12.71-5.482,19.621-5.402c7.308,0.397,14.298,2.701,20.416,6.752
	c0.158,0.636,0.476,1.271,0.874,1.827c2.621,3.495,61.565,82.379,113.2,82.379c2.304,0,4.607-0.158,6.911-0.477
	c19.781-2.86,41.309-12.075,64.107-21.846c35.907-15.411,76.659-32.809,118.524-28.599l42.658,7.229
	c3.019,0.556,6.038-1.032,7.309-3.893C507.075,526.636,506.36,523.378,503.977,521.393 M242.383,278.784
	c6.038,0,11.837,2.622,15.808,7.15c-4.924,0.079-9.929,0.239-15.013,0.715c-6.515,0.556-12.79,1.43-18.908,2.542
	C228.084,282.678,234.995,278.784,242.383,278.784 M131.883,472.537c-6.116,0-12.155,1.112-17.874,3.178
	c-1.827-23.037-2.7-84.047,31.379-127.5c10.168-12.948,22.958-23.515,37.495-31.141l0.397-0.159
	c1.668-0.873,3.257-1.668,5.005-2.462l1.271-0.636l19.462-7.149c11.519-3.337,23.435-5.561,35.43-6.594
	c29.948-3.416,60.295,2.225,87.065,16.206c11.678,4.369,24.706,17.874,24.706,17.874c41.785,38.29,54.256,97.869,57.514,119.317
	c-5.958-0.477-14.854-1.111-25.658-1.589l-18.271-0.556c-25.659-0.636-51.397,0.397-76.977,2.939
	c-29.313,3.575-58.388,8.737-87.144,15.569l-20.576,5.006c-11.916,3.019-20.971,5.48-25.421,6.752
	C151.425,476.032,141.812,472.935,131.883,472.537 M457.664,512.654c-45.837-4.607-88.258,13.504-125.674,29.551
	c-21.925,9.374-42.738,18.271-60.691,20.894c-34.398,5.005-81.505-44.089-102.318-70.146c41.07-11.438,83.014-19.938,125.276-25.341
	c40.991-3.893,82.299-3.972,123.29-0.318l58.309,48.3L457.664,512.654z"/>
<path fill="#FFFFFF" stroke="#2BB673" stroke-miterlimit="10" d="M360.604,397.366c-0.017-0.118-0.045-0.247-0.092-0.392
	c-2.781-8.793,0,0-8.447-25.331c-1.568-4.698-2.997-8.477-3.638-9.669c-0.039-0.113-0.234-0.352-0.24-0.355
	c-0.176-0.15-0.412-0.236-0.66-0.203c-0.43,0.058-0.738,0.431-0.726,0.853l0.001,0.002l-0.004,0.002v0.002l0.01,0.223
	c0.054,1.339,0.574,14.819,0.613,15.481c0.054,0.93-0.015,5.888-0.914,6.972c-0.717,0.864-1.942,2.134-3.492,3.744
	c-0.561,0.581-1.16,1.201-1.784,1.854c-0.631,0.662-1.388,1.053-2.25,1.168c-0.976,0.131-1.888-0.12-2.459-0.344
	c-2.144-1.131-5.133-2.661-8.521-4.372h0.03c-0.093-0.043-0.188-0.088-0.28-0.129c-2.138-1.081-4.427-2.228-6.759-3.396
	c-10.514-5.683-21.105-12.1-32.18-13.771c-4.212-0.637-8.189-0.105-11.813,1.122c-1.096,0.354-1.891,0.687-2.313,0.878
	c-2.094,0.851-3.813,1.848-5.264,2.901c-4.412,2.933-6.702,7.149-10.046,9.48l-0.559,0.074c-3.837-1.37-7.153-4.838-12.181-6.509
	c-1.681-0.635-3.597-1.147-5.841-1.417c-0.46-0.075-1.315-0.188-2.463-0.24c-3.823-0.231-7.799,0.299-11.696,2.021
	c-10.247,4.52-18.78,13.493-27.433,21.737c-1.946,1.74-3.851,3.447-5.631,5.053c-0.078,0.063-0.155,0.131-0.236,0.196l0.027-0.007
	c-2.818,2.54-5.301,4.801-7.072,6.456c-0.494,0.366-1.308,0.847-2.284,0.979c-0.861,0.114-1.695-0.063-2.475-0.537
	c-0.771-0.467-1.515-0.906-2.21-1.32c-1.919-1.146-3.433-2.05-4.351-2.695c-1.154-0.81-2.52-5.577-2.713-6.486
	c-0.134-0.65-3.172-13.794-3.474-15.1l-0.051-0.217v-0.002l-0.001-0.002v-0.002c-0.1-0.411-0.496-0.689-0.924-0.632
	c-0.252,0.034-0.455,0.178-0.585,0.37c-0.005,0.005-0.131,0.285-0.142,0.405c-0.301,1.319-0.688,5.339-0.967,10.284
	c-1.501,26.661-1.124,17.446-1.501,26.661c-0.007,0.152,0.001,0.284,0.016,0.402c0,0,0.005,0.007,0.013,0.02
	c0.019,0.608,0.552,1.02,0.967,1.132c8.841,2.337,17.697,4.628,26.56,6.873c0.746,0.191,1.459,0.375,2.117,0.541
	c0.858,0.217,1.87,0.017,2.734-0.255c2.599-0.824,5.141-1.863,7.749-2.663c6.643-2.043,12.998-5.119,20.008-5.872
	c5.348-0.581,10.623-1.571,15.962-2.469c0,0,1.43-0.262,2.046-0.61c6.244-3.544,12.462-7.138,18.707-10.68
	c0.192-0.108,0.404-0.192,0.665-0.234l0.026-0.004c0.264-0.026,0.489-0.002,0.707,0.052c6.953,1.777,13.896,3.612,20.854,5.393
	c0.686,0.174,2.135,0.051,2.135,0.051c4.722-0.469,9.416-0.859,14.084-1.515c0.85-0.116,1.7-0.238,2.549-0.373
	c0.267-0.041,0.533-0.075,0.801-0.111c6.498-0.756,12.979,0.391,19.463,0.602c2.727,0.087,5.451,0.422,8.178,0.535
	c0.517,0.017,1.072,0,1.597-0.099c0.601-0.047,1.196-0.177,1.691-0.452c8.597-4.844,17.173-9.744,25.72-14.685
	c0.372-0.218,0.781-0.755,0.635-1.346C360.602,397.374,360.604,397.366,360.604,397.366"/>
</svg>
