<?xml version="1.0" encoding="utf-8"?>
<!-- Generator: Adobe Illustrator 16.0.0, SVG Export Plug-In . SVG Version: 6.00 Build 0)  -->
<!DOCTYPE svg PUBLIC "-//W3C//DTD SVG 1.1//EN" "http://www.w3.org/Graphics/SVG/1.1/DTD/svg11.dtd">
<svg version="1.1" id="Layer_1" xmlns="http://www.w3.org/2000/svg" xmlns:xlink="http://www.w3.org/1999/xlink" x="0px" y="0px"
	 width="170.08px" height="170.08px" viewBox="0 0 170.08 170.08" enable-background="new 0 0 170.08 170.08" xml:space="preserve">
<path fill="#FFFFFF" d="M168.13,125.963l-31.145-25.834c-0.587-5.604-4.789-37.434-27.366-56.589
	C99.553,35.102,87.01,30.184,73.881,29.563c-2.378-5.701-8.177-9.187-14.334-8.601c-6.158,0.586-11.207,5.082-12.478,11.142
	c-0.815,0.228-1.596,0.521-2.412,0.749c-0.064,0.033-0.098,0.033-0.162,0.033c-10.979,3.192-20.72,9.676-27.822,18.634
	c-18.96,24.173-13.813,58.87-13.585,60.335c0.163,0.944,0.782,1.76,1.662,2.117c0.879,0.392,1.922,0.261,2.704-0.293
	c2.411-1.466,5.212-2.248,8.047-2.215c2.997,0.163,5.863,1.106,8.373,2.769c0.064,0.261,0.195,0.521,0.359,0.749
	c1.074,1.434,25.248,33.784,46.423,33.784c0.945,0,1.889-0.064,2.834-0.195c8.112-1.174,16.942-4.952,26.292-8.959
	c14.725-6.32,31.438-13.455,48.606-11.729l17.494,2.965c1.237,0.228,2.477-0.424,2.997-1.596
	C169.4,128.113,169.107,126.776,168.13,125.963 M60.85,26.468c2.476,0,4.854,1.076,6.483,2.933
	c-2.019,0.032-4.072,0.098-6.157,0.293c-2.672,0.227-5.245,0.586-7.754,1.042C54.985,28.065,57.82,26.468,60.85,26.468
	 M15.533,105.927c-2.508,0-4.985,0.456-7.33,1.304c-0.749-9.448-1.107-34.469,12.869-52.289c4.17-5.31,9.416-9.643,15.376-12.771
	l0.164-0.065c0.684-0.358,1.335-0.684,2.052-1.01l0.522-0.26l7.981-2.933c4.724-1.369,9.61-2.28,14.53-2.704
	c12.282-1.401,24.726,0.913,35.706,6.647c4.789,1.791,10.132,7.33,10.132,7.33c17.137,15.703,22.251,40.137,23.586,48.933
	c-2.443-0.195-6.091-0.456-10.521-0.651l-7.493-0.229c-10.523-0.261-21.078,0.164-31.569,1.206
	c-12.021,1.466-23.945,3.582-35.737,6.385l-8.438,2.053c-4.887,1.237-8.6,2.247-10.425,2.77
	C23.547,107.36,19.605,106.09,15.533,105.927 M149.138,122.379c-18.799-1.889-36.195,5.538-51.539,12.119
	c-8.992,3.845-17.528,7.493-24.891,8.568c-14.106,2.053-33.425-18.081-41.96-28.767c16.843-4.691,34.044-8.177,51.375-10.393
	c16.811-1.596,33.751-1.628,50.563-0.13l23.911,19.807L149.138,122.379z"/>
<path fill="#FFFFFF" d="M109.333,75.099c-0.007-0.048-0.019-0.101-0.037-0.161c-1.142-3.605,0,0-3.465-10.388
	c-0.644-1.927-1.229-3.476-1.492-3.965c-0.016-0.047-0.096-0.144-0.099-0.146c-0.071-0.062-0.169-0.097-0.271-0.083
	c-0.177,0.024-0.303,0.177-0.298,0.351l0,0l-0.002,0.001v0.001l0.005,0.091c0.022,0.55,0.235,6.078,0.252,6.349
	c0.021,0.382-0.006,2.416-0.375,2.86c-0.295,0.354-0.798,0.874-1.432,1.535c-0.23,0.239-0.476,0.493-0.732,0.76
	c-0.259,0.271-0.569,0.432-0.922,0.479c-0.401,0.054-0.774-0.049-1.009-0.141c-0.88-0.463-2.104-1.091-3.494-1.793h0.013
	c-0.039-0.017-0.077-0.036-0.115-0.052c-0.877-0.443-1.816-0.914-2.772-1.393c-4.312-2.331-8.655-4.962-13.197-5.647
	c-1.727-0.261-3.358-0.043-4.844,0.46c-0.45,0.145-0.776,0.281-0.949,0.36c-0.859,0.348-1.564,0.757-2.159,1.19
	c-1.81,1.202-2.749,2.932-4.12,3.887l-0.229,0.03c-1.574-0.561,6.411-3.232,4.349-3.917c-0.689-0.261-10.82,0.778-11.74,0.668
	c-0.189-0.031-0.54-0.077-1.01-0.099c-1.568-0.095-3.198,0.123-4.796,0.83c-4.203,1.853-7.702,5.533-11.25,8.915
	c-0.799,0.713-1.58,1.414-2.31,2.072c-0.032,0.026-0.063,0.053-0.096,0.081l0.011-0.003c-1.156,1.042-2.174,1.969-2.9,2.648
	c-0.202,0.15-0.536,0.347-0.937,0.401c-0.354,0.047-0.695-0.026-1.015-0.22c-0.316-0.192-0.621-0.373-0.906-0.542
	c-0.787-0.471-1.408-0.841-1.785-1.106c-0.473-0.332-1.033-2.287-1.112-2.66c-0.055-0.266-1.301-5.657-1.425-6.192l-0.021-0.089
	v-0.001l0-0.001v-0.001c-0.041-0.168-0.203-0.283-0.378-0.259c-0.104,0.014-0.187,0.073-0.24,0.151
	c-0.002,0.002-0.054,0.117-0.058,0.167c-0.124,0.54-0.282,2.188-0.396,4.217c-0.616,10.934-0.461,7.155-0.616,10.934
	c-0.003,0.063,0,0.116,0.006,0.165c0,0,0.002,0.003,0.006,0.008c0.008,0.249,0.226,0.417,0.396,0.464
	c3.625,0.958,7.257,1.898,10.892,2.818c0.306,0.079,0.598,0.154,0.869,0.222c0.352,0.089,0.767,0.007,1.121-0.104
	c1.066-0.338,2.108-0.765,3.178-1.093c2.725-0.838,5.331-2.099,8.206-2.408c2.193-0.239,4.356-0.645,6.546-1.013
	c0,0,0.586-0.107,0.839-0.25c2.56-1.454,5.11-2.928,7.671-4.38c0.079-0.045,0.166-0.079,0.272-0.096l0.011-0.002
	c0.108-0.01,0.201,0,0.29,0.022c2.852,0.729,5.699,1.481,8.552,2.212c0.281,0.071,0.875,0.021,0.875,0.021
	c1.936-0.193,3.861-0.353,5.776-0.622c0.349-0.048,0.697-0.098,1.045-0.153c0.108-0.017,0.218-0.03,0.328-0.045
	c2.664-0.31,5.322,0.16,7.981,0.246c1.119,0.036,2.236,0.173,3.354,0.22c0.212,0.006,0.439,0,0.655-0.041
	c0.246-0.02,0.49-0.073,0.692-0.186c3.526-1.987,7.043-3.996,10.548-6.022c0.153-0.09,0.321-0.31,0.261-0.552
	C109.331,75.102,109.333,75.099,109.333,75.099"/>
</svg>
