<?xml version="1.0" encoding="utf-8"?>
<!-- Generator: Adobe Illustrator 16.0.0, SVG Export Plug-In . SVG Version: 6.00 Build 0)  -->
<!DOCTYPE svg PUBLIC "-//W3C//DTD SVG 1.1//EN" "http://www.w3.org/Graphics/SVG/1.1/DTD/svg11.dtd">
<svg version="1.1" id="Layer_1" xmlns="http://www.w3.org/2000/svg" xmlns:xlink="http://www.w3.org/1999/xlink" x="0px" y="0px"
	 width="170.08px" height="170.08px" viewBox="0 0 170.08 170.08" enable-background="new 0 0 170.08 170.08" xml:space="preserve">
<path fill="#0A162C" d="M150.226,139.979H22.427C12.819,139.979,5,132.161,5,122.553V47.035c0-9.609,7.819-17.427,17.427-17.427
	h127.799c9.607,0,17.426,7.818,17.426,17.427v75.518C167.651,132.161,159.833,139.979,150.226,139.979 M22.427,36.579
	c-5.766,0-10.456,4.69-10.456,10.456v75.518c0,5.766,4.69,10.455,10.456,10.455h127.799c5.766,0,10.455-4.689,10.455-10.455V47.035
	c0-5.766-4.689-10.456-10.455-10.456H22.427z M73.546,113.258c0-1.924-1.56-3.485-3.484-3.485H28.236
	c-1.926,0-3.486,1.562-3.486,3.485c0,1.925,1.56,3.486,3.486,3.486h41.825C71.986,116.744,73.546,115.183,73.546,113.258
	 M160.681,59.814H11.971v15.685h148.71V59.814z"/>
</svg>
