<?xml version="1.0" encoding="utf-8"?>
<!-- Generator: Adobe Illustrator 16.0.0, SVG Export Plug-In . SVG Version: 6.00 Build 0)  -->
<!DOCTYPE svg PUBLIC "-//W3C//DTD SVG 1.1//EN" "http://www.w3.org/Graphics/SVG/1.1/DTD/svg11.dtd">
<svg version="1.1" id="Layer_1" xmlns="http://www.w3.org/2000/svg" xmlns:xlink="http://www.w3.org/1999/xlink" x="0px" y="0px"
	 width="170.08px" height="170.08px" viewBox="0 0 170.08 170.08" enable-background="new 0 0 170.08 170.08" xml:space="preserve">
<path fill="#0A162C" d="M147.504,141.393H24.837c-9.139,0-16.576-7.438-16.576-16.578V27.566c0-9.14,7.437-16.576,16.576-16.576
	h122.667c9.141,0,16.576,7.436,16.576,16.576v97.249C164.08,133.955,156.645,141.393,147.504,141.393 M24.837,17.621
	c-5.484,0-9.945,4.461-9.945,9.945v97.249c0,5.485,4.461,9.947,9.945,9.947h122.667c5.485,0,9.945-4.462,9.945-9.947V27.566
	c0-5.484-4.46-9.945-9.945-9.945H24.837z M86.17,30.348c-1.449,0-2.625,1.174-2.625,2.625c0,1.449,1.176,2.624,2.625,2.624
	s2.624-1.175,2.624-2.624C88.794,31.522,87.619,30.348,86.17,30.348 M157.449,107.686H14.891v6.631h142.558V107.686z
	 M69.919,152.544l4.353-11.151h-7.117l-3.412,8.739c-0.666,1.706,0.178,3.629,1.882,4.295c0.397,0.153,0.806,0.228,1.205,0.228
	C68.157,154.654,69.407,153.854,69.919,152.544 M107.477,154.427c1.703-0.666,2.547-2.589,1.883-4.295l-3.411-8.739h-7.12
	l4.354,11.151c0.512,1.31,1.763,2.11,3.09,2.11C106.671,154.654,107.079,154.58,107.477,154.427 M118.012,153.998
	c0-1.831-1.484-3.314-3.315-3.314H58.232c-1.831,0-3.316,1.483-3.316,3.314c0,1.83,1.485,3.314,3.316,3.314h56.464
	C116.527,157.313,118.012,155.828,118.012,153.998"/>
</svg>
