<?xml version="1.0" encoding="utf-8"?>
<!-- Generator: Adobe Illustrator 16.0.0, SVG Export Plug-In . SVG Version: 6.00 Build 0)  -->
<!DOCTYPE svg PUBLIC "-//W3C//DTD SVG 1.1//EN" "http://www.w3.org/Graphics/SVG/1.1/DTD/svg11.dtd">
<svg version="1.1" id="Layer_1" xmlns="http://www.w3.org/2000/svg" xmlns:xlink="http://www.w3.org/1999/xlink" x="0px" y="0px"
	 width="1700.791px" height="170.08px" viewBox="0 0 1700.791 170.08" enable-background="new 0 0 1700.791 170.08"
	 xml:space="preserve">
<linearGradient id="SVGID_1_" gradientUnits="userSpaceOnUse" x1="-109.2839" y1="-454.5762" x2="-108.3982" y2="-454.5762" gradientTransform="matrix(1920 0 0 1920 209825.9844 872871.6875)">
	<stop  offset="0" style="stop-color:#36B554"/>
	<stop  offset="0.0012" style="stop-color:#36B554"/>
	<stop  offset="1" style="stop-color:#3EC1CD"/>
</linearGradient>
<polyline fill="url(#SVGID_1_)" points="1700.791,0 1700.791,170.08 0,170.08 0,0 "/>
<polyline fill="none" points="0,-18.481 0,170.08 1700.791,170.08 1700.791,-18.481 "/>
<path fill="none" stroke="#FFFFFF" stroke-width="3" stroke-miterlimit="10" d="M0,129.263h54.323l5.092,4.989
	c0.526,0.517,1.805,0.437,2.147-0.132l7.553-12.526c0.39-0.646,1.912-0.631,2.265,0.021l6.424,11.825
	c0.374,0.688,2.011,0.652,2.302-0.051l1.753-4.248h23.565l9.862-45.596c0.183-0.845,2.216-0.836,2.378,0.01l12.567,65.667
	c0.096,0.867,2.185,0.911,2.382,0.051l7.762-33.846c0.188-0.813,2.122-0.838,2.367-0.029l4.512,14.971
	c0.194,0.643,1.592,0.813,2.184,0.266l8.387-9.302c0.484-0.537,1.784-0.494,2.164,0.074l7.133,10.646
	c0.38,0.566,1.683,0.61,2.166,0.073l2.683-2.985h62.941l3.428,3.561c0.519,0.535,1.842,0.456,2.172-0.133l7.626-13.605
	c0.364-0.65,1.889-0.654,2.266-0.007l8.407,14.448c0.415,0.712,2.132,0.611,2.315-0.133l1.018-4.131h19.3l10.875-48.597
	c0.188-0.842,2.217-0.831,2.378,0.015l12.677,66.242c0.123,0.865,2.212,0.889,2.384,0.023l8.888-33.695
	c0.208-0.792,2.082-0.82,2.354-0.035l5.743,16.426c0.296,0.616,1.68,0.711,2.199,0.148l5.296-9.104
	c0.359-0.616,1.788-0.65,2.227-0.053l8.318,15.186c0.351,0.643,1.845,0.667,2.253,0.035l4.281-6.594h58.51"/>
<path fill="none" stroke="#FFFFFF" stroke-width="3" stroke-miterlimit="10" d="M409.825,129.263h54.324l5.092,4.989
	c0.525,0.517,1.805,0.437,2.146-0.132l7.553-12.526c0.39-0.646,1.912-0.631,2.267,0.021l6.422,11.825
	c0.375,0.688,2.012,0.652,2.302-0.051l1.754-4.248h23.565l9.86-45.596c0.184-0.845,2.216-0.836,2.378,0.01l12.567,65.667
	c0.097,0.867,2.185,0.911,2.382,0.051l7.763-33.846c0.187-0.813,2.121-0.838,2.366-0.029l4.514,14.971
	c0.192,0.643,1.59,0.813,2.183,0.266l8.387-9.302c0.483-0.537,1.784-0.494,2.163,0.074l7.134,10.646
	c0.38,0.566,1.684,0.61,2.165,0.073l2.683-2.985h62.941l3.429,3.561c0.517,0.535,1.841,0.456,2.171-0.133l7.626-13.605
	c0.364-0.65,1.889-0.654,2.267-0.007l8.407,14.448c0.414,0.712,2.132,0.611,2.315-0.133l1.018-4.131h19.301l10.874-48.597
	c0.189-0.842,2.216-0.831,2.378,0.015l12.677,66.242c0.123,0.865,2.213,0.889,2.385,0.023l8.887-33.695
	c0.208-0.792,2.082-0.82,2.354-0.035l5.743,16.426c0.296,0.616,1.682,0.711,2.199,0.148l5.296-9.104
	c0.359-0.616,1.789-0.65,2.228-0.053l8.318,15.186c0.352,0.643,1.845,0.667,2.253,0.035l4.281-6.594h58.51"/>
<path fill="none" stroke="#FFFFFF" stroke-width="3" stroke-miterlimit="10" d="M819.65,129.263h54.324l5.092,4.989
	c0.523,0.517,1.803,0.437,2.145-0.132l7.556-12.526c0.389-0.646,1.911-0.631,2.264,0.021l6.423,11.825
	c0.375,0.688,2.013,0.652,2.303-0.051l1.756-4.248h23.564l9.86-45.596c0.184-0.845,2.216-0.836,2.379,0.01l12.567,65.667
	c0.095,0.867,2.184,0.911,2.381,0.051l7.763-33.846c0.188-0.813,2.121-0.838,2.367-0.029l4.512,14.971
	c0.194,0.643,1.59,0.813,2.183,0.266l8.389-9.302c0.482-0.537,1.783-0.494,2.162,0.074l7.133,10.646
	c0.381,0.566,1.684,0.61,2.167,0.073l2.681-2.985h62.943l3.427,3.561c0.519,0.535,1.843,0.456,2.172-0.133l7.626-13.605
	c0.365-0.65,1.891-0.654,2.268-0.007l8.406,14.448c0.413,0.712,2.132,0.611,2.316-0.133l1.018-4.131h19.3l10.874-48.597
	c0.188-0.842,2.216-0.831,2.379,0.015l12.677,66.242c0.123,0.865,2.213,0.889,2.385,0.023l8.886-33.695
	c0.209-0.792,2.084-0.82,2.356-0.035l5.742,16.426c0.296,0.616,1.68,0.711,2.198,0.148l5.296-9.104
	c0.359-0.616,1.788-0.65,2.228-0.053l8.319,15.186c0.352,0.643,1.846,0.667,2.254,0.035l4.279-6.594h58.51"/>
<path fill="none" stroke="#FFFFFF" stroke-width="3" stroke-miterlimit="10" d="M1229.474,129.263h54.323l5.092,4.989
	c0.526,0.517,1.804,0.437,2.146-0.132l7.554-12.526c0.39-0.646,1.912-0.631,2.266,0.021l6.422,11.825
	c0.374,0.688,2.012,0.652,2.303-0.051l1.752-4.248h23.566l9.862-45.596c0.182-0.845,2.216-0.836,2.377,0.01l12.566,65.667
	c0.099,0.867,2.187,0.911,2.384,0.051l7.762-33.846c0.187-0.813,2.123-0.838,2.367-0.029l4.512,14.971
	c0.193,0.643,1.59,0.813,2.184,0.266l8.387-9.302c0.483-0.537,1.785-0.494,2.164,0.074l7.134,10.646
	c0.379,0.566,1.682,0.61,2.164,0.073l2.682-2.985h62.942l3.429,3.561c0.518,0.535,1.842,0.456,2.17-0.133l7.629-13.605
	c0.365-0.65,1.887-0.654,2.265-0.007l8.406,14.448c0.415,0.712,2.135,0.611,2.317-0.133l1.017-4.131h19.301l10.875-48.597
	c0.188-0.842,2.217-0.831,2.379,0.015l12.678,66.242c0.121,0.865,2.211,0.889,2.384,0.023l8.886-33.695
	c0.207-0.792,2.082-0.82,2.355-0.035l5.743,16.426c0.296,0.616,1.681,0.711,2.196,0.148l5.299-9.104
	c0.358-0.616,1.787-0.65,2.227-0.053l8.318,15.186c0.352,0.643,1.846,0.667,2.254,0.035l4.281-6.594h120"/>
<polyline fill="none" points="1700.791,-887.099 1700.791,170.08 0,170.08 0,-887.099 "/>
<path fill="#FFFFFF" d="M136.285,58.742h-32.479c-2.443,0-4.431-2.196-4.431-4.894V32.639c0-2.698,1.987-4.894,4.431-4.894h32.479
	c2.442,0,4.43,2.196,4.43,4.894v21.209C140.714,56.546,138.727,58.742,136.285,58.742 M103.805,29.702
	c-1.467,0-2.657,1.316-2.657,2.937v21.209c0,1.619,1.19,2.937,2.657,2.937h32.479c1.465,0,2.657-1.317,2.657-2.937V32.639
	c0-1.62-1.192-2.937-2.657-2.937H103.805z M116.796,51.237c0-0.54-0.396-0.979-0.886-0.979h-10.63c-0.489,0-0.886,0.439-0.886,0.979
	s0.396,0.979,0.886,0.979h10.63C116.4,52.216,116.796,51.777,116.796,51.237 M138.942,36.229h-37.794v4.405h37.794V36.229z"/>
<path fill="#FFFFFF" d="M954.566,61.983h-36.342c-2.708,0-4.91-2.435-4.91-5.427V24.718c0-2.992,2.202-5.427,4.91-5.427h36.342
	c2.708,0,4.911,2.435,4.911,5.427v31.838C959.478,59.548,957.274,61.983,954.566,61.983 M918.225,21.462
	c-1.624,0-2.944,1.461-2.944,3.256v31.838c0,1.795,1.32,3.255,2.944,3.255h36.342c1.626,0,2.948-1.459,2.948-3.255V24.718
	c0-1.795-1.322-3.256-2.948-3.256H918.225z M936.396,25.629c-0.431,0-0.776,0.384-0.776,0.857c0,0.476,0.347,0.859,0.776,0.859
	c0.429,0,0.778-0.383,0.778-0.859C937.176,26.013,936.825,25.629,936.396,25.629 M957.515,50.948h-42.236v2.171h42.236V50.948z
	 M931.582,65.634l1.288-3.651h-2.108l-1.008,2.861c-0.199,0.557,0.052,1.188,0.557,1.406c0.116,0.049,0.237,0.075,0.355,0.075
	C931.059,66.325,931.429,66.063,931.582,65.634 M942.711,66.25c0.503-0.218,0.752-0.849,0.555-1.406l-1.01-2.861h-2.109l1.291,3.651
	c0.15,0.429,0.521,0.691,0.915,0.691C942.47,66.325,942.593,66.299,942.711,66.25 M945.829,66.11c0-0.6-0.438-1.086-0.979-1.086
	H928.12c-0.542,0-0.981,0.486-0.981,1.086c0,0.599,0.439,1.084,0.981,1.084h16.729C945.39,67.194,945.829,66.709,945.829,66.11"/>
<path fill="#FFFFFF" d="M535.382,72.039h-15.568c-2.069,0-3.752-1.861-3.752-4.148V33.484c0-2.287,1.683-4.146,3.752-4.146h15.568
	c2.069,0,3.753,1.86,3.753,4.146v34.407C539.135,70.177,537.451,72.039,535.382,72.039 M519.813,31.18
	c-1.149,0-2.085,1.033-2.085,2.304v34.407c0,1.271,0.936,2.304,2.085,2.304h15.568c1.149,0,2.085-1.033,2.085-2.304V33.484
	c0-1.271-0.936-2.304-2.085-2.304H519.813z M532.08,66.431c0-0.509-0.373-0.922-0.835-0.922h-7.296
	c-0.461,0-0.834,0.413-0.834,0.922c0,0.509,0.373,0.921,0.834,0.921h7.296C531.707,67.353,532.08,66.94,532.08,66.431
	 M527.597,34.334c-0.364,0-0.66,0.327-0.66,0.729c0,0.403,0.296,0.73,0.66,0.73c0.365,0,0.661-0.327,0.661-0.73
	C528.259,34.661,527.963,34.334,527.597,34.334"/>
<line fill="none" stroke="#FFFFFF" stroke-width="3" stroke-linecap="round" stroke-miterlimit="10" x1="509.414" y1="29.616" x2="502.5" y2="27.19"/>
<line fill="none" stroke="#FFFFFF" stroke-width="3" stroke-linecap="round" stroke-miterlimit="10" x1="544.844" y1="29.151" x2="551.125" y2="25.144"/>
<line fill="none" stroke="#FFFFFF" stroke-width="3" stroke-linecap="round" stroke-miterlimit="10" x1="535.614" y1="24.083" x2="542.654" y2="7.983"/>
<line fill="none" stroke="#FFFFFF" stroke-width="3" stroke-linecap="round" stroke-miterlimit="10" x1="517.022" y1="22.827" x2="509.491" y2="7"/>
<line fill="none" stroke="#FFFFFF" stroke-width="3" stroke-linecap="round" stroke-miterlimit="10" x1="510.411" y1="62.093" x2="505.152" y2="67.613"/>
<line fill="none" stroke="#FFFFFF" stroke-width="3" stroke-linecap="round" stroke-miterlimit="10" x1="508.989" y1="48.424" x2="492.81" y2="48.074"/>
<line fill="none" stroke="#FFFFFF" stroke-width="3" stroke-linecap="round" stroke-miterlimit="10" x1="545.008" y1="62.093" x2="550.267" y2="67.613"/>
<line fill="none" stroke="#FFFFFF" stroke-width="3" stroke-linecap="round" stroke-miterlimit="10" x1="545.538" y1="48.424" x2="561.718" y2="48.074"/>
<polyline fill="none" points="1700.791,-887.099 1700.791,170.08 0,170.08 0,-887.099 "/>
<polyline fill="none" points="1700.791,-887.099 1700.791,170.08 0,170.08 0,-887.099 "/>
<polyline fill="none" points="1700.791,-887.099 1700.791,170.08 0,170.08 0,-887.099 "/>
<polyline fill="none" points="0,-887.099 0,170.08 1700.791,170.08 1700.791,-887.099 "/>
</svg>
