<?xml version="1.0" encoding="utf-8"?>
<!-- Generator: Adobe Illustrator 16.0.0, SVG Export Plug-In . SVG Version: 6.00 Build 0)  -->
<!DOCTYPE svg PUBLIC "-//W3C//DTD SVG 1.1//EN" "http://www.w3.org/Graphics/SVG/1.1/DTD/svg11.dtd">
<svg version="1.1" id="Layer_1" xmlns="http://www.w3.org/2000/svg" xmlns:xlink="http://www.w3.org/1999/xlink" x="0px" y="0px"
	 width="170.08px" height="170.08px" viewBox="0 0 170.08 170.08" enable-background="new 0 0 170.08 170.08" xml:space="preserve">
<path fill="#36B554" d="M5.557,86.22c0.851-3.311,2.51-4.633,5.876-4.656c1.268-0.008,2.538,0.053,3.801-0.019
	c1.09-0.063,1.508,0.308,1.473,1.436c-0.068,2.205-0.042,4.41-0.011,6.616c0.033,2.312,2.817,3.8,4.806,2.554
	c0.245-0.154,0.406-0.627,0.408-0.954c0.026-3.895,0.053-7.79-0.006-11.685c-0.02-1.373-0.932-2.073-2.482-2.082
	c-3.987-0.018-7.977-0.051-11.965,0.019c-1.248,0.021-1.671-0.37-1.584-1.605c0.093-1.354,0.052-2.722,0.011-4.08
	c-0.025-0.863,0.345-1.151,1.175-1.149c6.663,0.018,13.328-0.058,19.99,0.038c4.027,0.058,6.196,2.416,6.204,6.434
	c0.012,6.803-0.023,13.607,0.029,20.41c0.008,1.219-0.32,1.623-1.579,1.611c-6.663-0.056-13.327-0.022-19.99-0.027
	c-3.51-0.002-5.333-1.459-6.17-4.889C5.488,93.974,5.501,86.434,5.557,86.22"/>
<path fill="#36B554" d="M87.398,102.998c0.612-3.916,0.612-3.916-2.986-3.916c-2.439,0-4.878,0.014-7.317-0.004
	c-3.463-0.024-5.853-2.395-5.859-5.827c-0.014-7.034,0.017-14.073-0.026-21.108c-0.007-1.15,0.318-1.574,1.508-1.542
	c2.766,0.072,5.535,0.066,8.3,0.002c1.149-0.027,1.553,0.318,1.542,1.51c-0.053,5.863-0.06,11.728,0.021,17.59
	c0.01,0.776,0.44,2.034,0.967,2.215c1.133,0.387,2.459,0.257,3.703,0.211c0.125-0.005,0.309-0.894,0.311-1.373
	c0.021-6.146,0.054-12.291-0.018-18.434c-0.016-1.391,0.433-1.768,1.764-1.725c2.766,0.09,5.536,0.056,8.302,0.012
	c0.976-0.016,1.315,0.334,1.313,1.31c-0.027,11.257-0.002,22.514-0.045,33.771c-0.011,3.004-2.26,5.227-5.277,5.247
	c-6.895,0.052-13.791,0.011-20.686,0.046c-1.026,0.006-1.435-0.322-1.397-1.377c0.062-1.732,0.072-3.473-0.002-5.205
	c-0.05-1.143,0.409-1.436,1.485-1.422c4.221,0.048,8.444,0.02,12.665,0.02H87.398z"/>
<path fill="#36B554" d="M66.038,78.868c0,6.145-0.041,12.29,0.03,18.433c0.018,1.441-0.438,1.826-1.848,1.812
	c-6.564-0.068-13.132-0.026-19.698-0.032c-3.901-0.003-6.215-2.307-6.224-6.211c-0.012-5.253-0.006-10.506-0.003-15.759
	c0.004-4.107,2.166-6.341,6.292-6.478c1.218-0.041,2.441,0.042,3.657-0.023c1.049-0.058,1.383,0.343,1.376,1.382
	c-0.038,5.722-0.02,11.444-0.017,17.167c0.001,2.771,2.046,4.131,4.643,3.061c0.241-0.098,0.473-0.455,0.524-0.729
	c0.096-0.5,0.065-1.025,0.066-1.541c0.003-9.803,0.031-19.606-0.03-29.409c-0.008-1.447,0.427-1.861,1.839-1.802
	c2.623,0.106,5.254,0.082,7.879,0.008c1.191-0.034,1.537,0.408,1.531,1.547C66.018,66.484,66.038,72.677,66.038,78.868"/>
<path fill="#36B554" d="M137.063,84.838c0-4.127,0.051-8.255-0.027-12.381c-0.027-1.369,0.295-1.887,1.779-1.868
	c6.378,0.08,12.758,0.073,19.135,0.021c4.961-0.04,6.939,2.977,6.851,6.796c-0.155,6.703-0.073,13.414-0.017,20.119
	c0.011,1.252-0.378,1.617-1.605,1.582c-2.764-0.081-5.535-0.07-8.3-0.003c-1.112,0.025-1.456-0.345-1.446-1.452
	c0.045-5.814,0.012-11.629,0.027-17.445c0.005-1.033-0.037-2.178-1.141-2.469c-1.135-0.298-2.391-0.218-3.578-0.123
	c-0.197,0.015-0.454,0.953-0.457,1.466c-0.033,5.394-0.023,10.787-0.024,16.18c-0.001,3.82,0,3.82-3.857,3.82
	c-1.969,0-3.94-0.053-5.907,0.021c-1.125,0.044-1.461-0.372-1.45-1.462C137.089,93.372,137.063,89.104,137.063,84.838"/>
<path fill="#36B554" d="M104.158,82.885c0-3.614,0.037-7.228-0.021-10.84c-0.019-1.126,0.38-1.447,1.469-1.441
	c6.616,0.039,13.233,0.013,19.851,0.022c4.58,0.006,6.637,3.055,6.393,6.495c-0.138,1.915,0,3.847-0.037,5.77
	c-0.057,2.84-2.191,5.095-5.018,5.251c-1.685,0.092-3.377,0.023-5.066,0.068c-0.908,0.023-1.24-0.354-1.227-1.258
	c0.041-2.395,0.025-4.788,0.008-7.181c-0.013-1.597-0.705-2.317-2.317-2.338c-3.31-0.042-2.683-0.1-2.708,2.544
	c-0.034,3.332-0.018,6.664-0.004,9.996c0.005,1.671,0.621,2.302,2.283,2.309c4.131,0.018,8.26,0.034,12.391-0.011
	c1.028-0.012,1.44,0.299,1.387,1.363c-0.07,1.453-0.039,2.91-0.008,4.364c0.016,0.776-0.291,1.093-1.078,1.091
	c-6.994-0.018-13.986,0.052-20.979-0.041c-3.109-0.041-5.283-2.465-5.309-5.604c-0.025-3.519-0.004-7.039-0.004-10.559H104.158z"/>
</svg>
