<?xml version="1.0" encoding="utf-8"?>
<!-- Generator: Adobe Illustrator 16.0.2, SVG Export Plug-In . SVG Version: 6.00 Build 0)  -->
<!DOCTYPE svg PUBLIC "-//W3C//DTD SVG 1.1//EN" "http://www.w3.org/Graphics/SVG/1.1/DTD/svg11.dtd">
<svg version="1.1" id="Layer_1" xmlns="http://www.w3.org/2000/svg" xmlns:xlink="http://www.w3.org/1999/xlink" x="0px" y="0px"
	 width="179.844px" height="58.379px" viewBox="0 0 179.844 58.379" enable-background="new 0 0 179.844 58.379"
	 xml:space="preserve">
<rect x="-158.053" y="-39.627" display="none" fill="#00112C" width="2046.919" height="1535.5"/>
<g display="none">
	<defs>
		<rect id="SVGID_1_" x="-159.134" y="-39.627" width="2048" height="256"/>
	</defs>
	<clipPath id="SVGID_2_" display="inline">
		<use xlink:href="#SVGID_1_"  overflow="visible"/>
	</clipPath>
	
		<linearGradient id="SVGID_3_" gradientUnits="userSpaceOnUse" x1="-159.1338" y1="1496.373" x2="-158.1338" y2="1496.373" gradientTransform="matrix(2048 0 0 -2048 325746.875 3064660.25)">
		<stop  offset="0" style="stop-color:#0ABF53"/>
		<stop  offset="0.0012" style="stop-color:#0ABF53"/>
		<stop  offset="1" style="stop-color:#20CBD4"/>
	</linearGradient>
	<rect x="-159.134" y="-39.627" display="inline" clip-path="url(#SVGID_2_)" fill="url(#SVGID_3_)" width="2048" height="256"/>
</g>
<text transform="matrix(1 0 0 1 -8.1338 154.2524)"><tspan x="0" y="0" fill="#FFFFFF" font-family="'Fakt-Blond'" font-size="90">P</tspan><tspan x="47.34" y="0" fill="#FFFFFF" font-family="'Fakt-Blond'" font-size="90">u</tspan><tspan x="96.929" y="0" fill="#FFFFFF" font-family="'Fakt-Blond'" font-size="90" letter-spacing="-1">r</tspan><tspan x="124.919" y="0" fill="#FFFFFF" font-family="'Fakt-Blond'" font-size="90">chase a </tspan></text>
<text transform="matrix(1 0 0 1 445.4673 154.2524)" fill="#FFFFFF" font-family="'Fakt-SemiBold'" font-size="90">drink</text>
<text transform="matrix(1 0 0 1 663.9878 154.2524)"><tspan x="0" y="0" fill="#FFFFFF" font-family="'Fakt-Blond'" font-size="90"> he</tspan><tspan x="114.118" y="0" fill="#FFFFFF" font-family="'Fakt-Blond'" font-size="90" letter-spacing="-1">r</tspan><tspan x="142.107" y="0" fill="#FFFFFF" font-family="'Fakt-Blond'" font-size="90">e</tspan></text>
<text transform="matrix(1 0 0 1 119.2212 1056.252)" fill="#FFFFFF" font-family="'Fakt-Blond'" font-size="35">$3 Wine</text>
<text transform="matrix(1 0 0 1 810.3311 1056.252)"><tspan x="0" y="0" fill="#FFFFFF" font-family="'Fakt-Blond'" font-size="35">$3 B</tspan><tspan x="62.299" y="0" fill="#FFFFFF" font-family="'Fakt-Blond'" font-size="35">e</tspan><tspan x="80.218" y="0" fill="#FFFFFF" font-family="'Fakt-Blond'" font-size="35">er</tspan></text>
<text transform="matrix(1 0 0 1 1458.1807 1056.252)"><tspan x="0" y="0" fill="#FFFFFF" font-family="'Fakt-Blond'" font-size="35">$3 S</tspan><tspan x="60.584" y="0" fill="#FFFFFF" font-family="'Fakt-Blond'" font-size="35">o</tspan><tspan x="79.693" y="0" fill="#FFFFFF" font-family="'Fakt-Blond'" font-size="35">ft drink</tspan></text>
<g>
	<defs>
		<rect id="SVGID_4_" x="-159.134" y="-39.627" width="2048" height="1536"/>
	</defs>
	<clipPath id="SVGID_5_">
		<use xlink:href="#SVGID_4_"  overflow="visible"/>
	</clipPath>
	<path clip-path="url(#SVGID_5_)" fill="#FFFFFF" d="M2.926,30.915c0.946-3.679,2.789-5.149,6.53-5.174
		c1.407-0.009,2.818,0.06,4.222-0.02c1.211-0.07,1.676,0.342,1.637,1.595c-0.076,2.448-0.046,4.9-0.012,7.35
		c0.036,2.57,3.13,4.222,5.34,2.838c0.272-0.171,0.451-0.697,0.453-1.061c0.029-4.328,0.059-8.656-0.006-12.981
		c-0.024-1.526-1.036-2.304-2.759-2.313c-4.432-0.021-8.864-0.058-13.295,0.02c-1.387,0.025-1.857-0.411-1.762-1.783
		c0.105-1.505,0.059-3.023,0.014-4.534c-0.028-0.959,0.383-1.278,1.305-1.276c7.404,0.02,14.809-0.064,22.211,0.041
		c4.474,0.064,6.885,2.685,6.893,7.148c0.013,7.56-0.026,15.121,0.031,22.68c0.01,1.354-0.354,1.803-1.753,1.791
		c-7.403-0.063-14.808-0.026-22.211-0.031c-3.9-0.003-5.926-1.621-6.856-5.432C2.849,39.531,2.865,31.151,2.926,30.915"/>
	<path clip-path="url(#SVGID_5_)" fill="#FFFFFF" d="M93.861,49.557c0.679-4.351,0.679-4.351-3.318-4.351
		c-2.71,0-5.42,0.016-8.13-0.004c-3.848-0.027-6.503-2.659-6.51-6.475c-0.015-7.817,0.019-15.635-0.03-23.453
		c-0.008-1.277,0.354-1.749,1.676-1.714c3.072,0.08,6.15,0.075,9.223,0.002c1.276-0.03,1.724,0.353,1.712,1.678
		c-0.058,6.514-0.066,13.03,0.022,19.544c0.012,0.862,0.49,2.261,1.076,2.461c1.26,0.43,2.733,0.286,4.113,0.233
		c0.14-0.004,0.343-0.992,0.345-1.525c0.024-6.827,0.061-13.655-0.019-20.482c-0.018-1.545,0.48-1.964,1.962-1.916
		c3.071,0.1,6.149,0.062,9.223,0.014c1.084-0.017,1.461,0.371,1.458,1.455c-0.03,12.508-0.001,25.016-0.048,37.524
		c-0.013,3.338-2.512,5.806-5.865,5.831c-7.661,0.055-15.323,0.01-22.984,0.05c-1.141,0.006-1.594-0.359-1.552-1.53
		c0.068-1.925,0.079-3.859-0.004-5.783c-0.055-1.269,0.456-1.595,1.651-1.581c4.69,0.054,9.381,0.022,14.072,0.022H93.861z"/>
	<path clip-path="url(#SVGID_5_)" fill="#FFFFFF" d="M70.126,22.746c0,6.827-0.045,13.655,0.034,20.481
		c0.019,1.602-0.487,2.03-2.053,2.013c-7.295-0.077-14.592-0.03-21.888-0.036c-4.334-0.003-6.906-2.562-6.916-6.901
		c-0.012-5.837-0.006-11.674-0.002-17.511c0.003-4.563,2.406-7.046,6.992-7.198c1.353-0.045,2.713,0.048,4.063-0.026
		c1.166-0.063,1.537,0.382,1.529,1.537c-0.042,6.358-0.022,12.716-0.019,19.075c0.002,3.08,2.273,4.591,5.159,3.401
		c0.268-0.11,0.525-0.507,0.582-0.81c0.106-0.555,0.073-1.14,0.073-1.712c0.003-10.893,0.035-21.785-0.032-32.677
		c-0.01-1.607,0.474-2.067,2.044-2.003c2.914,0.119,5.837,0.091,8.753,0.009c1.323-0.037,1.708,0.454,1.701,1.72
		C70.104,8.987,70.126,15.867,70.126,22.746"/>
	<path clip-path="url(#SVGID_5_)" fill="#FFFFFF" d="M149.043,29.379c0-4.586,0.055-9.172-0.032-13.756
		c-0.029-1.521,0.329-2.097,1.98-2.076c7.086,0.089,14.174,0.081,21.26,0.024c5.511-0.043,7.71,3.308,7.612,7.552
		c-0.173,7.447-0.081,14.902-0.019,22.353c0.011,1.391-0.421,1.798-1.784,1.758c-3.072-0.09-6.149-0.077-9.222-0.004
		c-1.237,0.029-1.617-0.382-1.607-1.611c0.05-6.461,0.013-12.923,0.031-19.385c0.004-1.148-0.041-2.42-1.268-2.742
		c-1.26-0.331-2.656-0.243-3.976-0.138c-0.219,0.017-0.504,1.059-0.508,1.629c-0.038,5.993-0.025,11.985-0.026,17.978
		c-0.001,4.245,0,4.245-4.286,4.245c-2.188,0-4.379-0.061-6.565,0.023c-1.251,0.048-1.623-0.415-1.61-1.625
		C149.073,38.863,149.043,34.121,149.043,29.379"/>
	<path clip-path="url(#SVGID_5_)" fill="#FFFFFF" d="M112.483,27.209c0-4.015,0.04-8.031-0.024-12.044
		c-0.02-1.252,0.423-1.608,1.633-1.602c7.352,0.044,14.704,0.015,22.057,0.025c5.086,0.007,7.372,3.395,7.101,7.217
		c-0.152,2.127,0,4.274-0.042,6.411c-0.061,3.155-2.432,5.661-5.573,5.834c-1.872,0.103-3.753,0.027-5.629,0.077
		c-1.01,0.027-1.38-0.393-1.363-1.399c0.044-2.659,0.028-5.319,0.007-7.978c-0.013-1.775-0.784-2.574-2.574-2.598
		c-3.678-0.047-2.981-0.111-3.01,2.827c-0.037,3.702-0.019,7.404-0.004,11.106c0.007,1.857,0.69,2.558,2.538,2.566
		c4.589,0.019,9.178,0.037,13.766-0.013c1.145-0.012,1.602,0.333,1.543,1.516c-0.08,1.612-0.044,3.231-0.011,4.848
		c0.018,0.865-0.322,1.214-1.197,1.212c-7.77-0.018-15.54,0.057-23.308-0.045c-3.455-0.045-5.872-2.738-5.898-6.228
		c-0.03-3.91-0.007-7.821-0.007-11.732H112.483z"/>
	<path clip-path="url(#SVGID_5_)" fill="#FFFFFF" d="M181.845,855.013c-1.455,0-2.92-0.069-4.393-0.21
		c-22.357-2.132-39.87-22.225-39.87-45.743v-81.64c0-8.513,6.925-15.439,15.438-15.439h57.525c8.513,0,15.438,6.926,15.438,15.439
		v83.389c0,12.426-5.276,24.35-14.475,32.713C203.27,851.013,192.869,855.013,181.845,855.013 M153.021,718.997
		c-4.644,0-8.423,3.779-8.423,8.423v81.64c0,19.941,14.724,36.966,33.521,38.759c10.644,1.017,20.825-2.354,28.67-9.487
		c7.74-7.037,12.18-17.069,12.18-27.522V727.42c0-4.644-3.779-8.423-8.423-8.423H153.021z M218.968,779.987h-74.371v7.016
		l74.371-0.012V779.987z M185.29,918.924v-64.043c-1.456,0.216-6.634,0.058-7.016-0.008v64.051c0,1.938,1.571,3.508,3.509,3.508
		C183.72,922.432,185.29,920.861,185.29,918.924 M224.253,918.924c0-1.937-1.571-3.508-3.508-3.508H142.82
		c-1.937,0-3.508,1.571-3.508,3.508c0,1.938,1.571,3.508,3.508,3.508h77.925C222.682,922.432,224.253,920.861,224.253,918.924"/>
	<path clip-path="url(#SVGID_5_)" fill="#FFFFFF" d="M929.123,896.271c0,5.307,0.01,10.398-0.002,15.491
		c-0.027,11.854-7.983,21.508-19.583,23.674c-1.614,0.302-3.296,0.342-4.947,0.343c-25.777,0.021-51.553,0.042-77.33,0.002
		c-12.113-0.019-21.398-7.246-23.99-18.646c-0.457-2.012-0.612-4.134-0.616-6.205c-0.043-20.881-0.007-41.762-0.077-62.641
		c-0.004-1.166-0.527-2.473-1.182-3.468c-2.162-3.287-2.671-6.946-2.682-10.719c-0.042-15.264-0.032-30.528-0.042-45.793
		c0-0.851,0-1.702,0-2.636c-7.389-0.537-12.896-3.854-16.411-10.203c-6.537-11.806-0.035-26.146,13.096-29.1
		c0.621-0.141,1.454-0.869,1.578-1.453c2.773-13.018,17.059-19.756,28.572-13.422c0.303,0.166,0.66,0.232,1.004,0.35
		c2.783-15.664,23.341-22.221,35.001-9.64c3.751-10.432,10.6-17.856,21.063-21.583c8.18-2.914,16.369-2.632,24.433,0.64
		c14.991,6.083,26.359,24.377,18.257,45.067c0.524,0.185,1.045,0.369,1.565,0.554c7.57,2.693,12.361,7.927,13.449,15.906
		c1.149,8.434-2.192,15.052-9.459,19.53c-1.257,0.774-1.8,1.517-1.731,2.998c0.124,2.643,0.035,5.294,0.035,8.184
		c1.601,0,3.02-0.017,4.438,0.003c7.623,0.107,15.309-0.35,22.855,0.471c11.427,1.241,20.053,11.175,20.148,22.605
		c0.155,18.862,0.169,37.729-0.002,56.592c-0.115,12.721-10.783,23.008-23.527,23.087c-7.128,0.044-14.256,0.01-21.384,0.011
		H929.123z M822.395,797.387c0,1.006,0,1.781,0,2.557c-0.001,11.307,0.075,22.612-0.059,33.916
		c-0.033,2.766-0.469,5.604-1.227,8.266c-1.209,4.249-4.166,6.313-8.585,6.616c-0.617,0.042-1.232,0.106-1.831,0.159
		c-0.05,0.493-0.104,0.778-0.104,1.063c-0.004,20.739-0.077,41.479,0.031,62.218c0.047,9.094,6.905,15.698,15.994,15.707
		c26.14,0.026,52.281,0.013,78.421-0.002c1.144,0,2.317-0.031,3.429-0.271c8.002-1.718,12.866-7.983,12.868-16.554
		c0.007-41.119,0.003-82.238,0.003-123.355v-1.936c-3.446-1.125-6.616-2.178-9.798-3.189c-1.064-0.34-2.159-0.824-3.241-0.827
		c-15.986-0.054-31.973-0.039-47.96-0.032c-0.756,0.001-1.512,0.077-2.336,0.122c0,4.192-0.248,8.161,0.055,12.087
		c0.509,6.579-3.139,12.288-9.47,14.174c-3.416,1.019-6.784,0.639-10.323-0.667v2.824v52.929c0,13.251,0.005,26.501-0.004,39.751
		c-0.002,3.304-1.4,5.1-3.928,5.128c-2.545,0.029-4.003-1.791-4.029-5.028c-0.002-0.217-0.001-0.433-0.001-0.648
		c0-33.054-0.006-66.106,0.026-99.161c0.001-1.262,0.295-2.544,0.603-3.779c0.339-1.358,0.071-2.094-1.473-2.074
		C827.228,797.408,825,797.387,822.395,797.387 M806.554,808.516c0,8.065-0.037,16.128,0.027,24.192
		c0.015,1.999,0.243,4.016,0.586,5.987c0.387,2.235,2.164,2.346,4.004,2.317c1.851-0.027,2.819-1.001,3.016-2.716
		c0.221-1.926,0.385-3.872,0.39-5.81c0.034-12.672,0.012-25.344,0.023-38.015c0.003-3.637,1.282-4.877,4.966-4.882
		c4.464-0.006,8.927-0.004,13.391-0.001c3.849,0.002,4.912,1.083,5.408,4.841c0.198,1.503,0.758,3.093,1.598,4.346
		c1.387,2.07,4.081,2.599,6.602,1.686c2.429-0.878,3.655-2.578,3.637-5.014c-0.038-5.325-0.079-10.652-0.097-15.979
		c-0.015-4.573,1.123-5.687,5.772-5.688c17.783-0.002,35.566,0.017,53.351-0.024c2.086-0.005,3.858,0.451,5.658,1.607
		c3.819,2.456,7.931,2.5,11.866,0.278c3.857-2.176,5.881-5.605,5.896-10.101c0.018-6.28-4.185-10.68-11.184-11.746
		c-6.791-1.034-7.559-2.494-4.426-8.723c2.666-5.301,3.73-10.821,2.708-16.715c-2.032-11.727-11.978-21.035-23.295-21.759
		c-13.099-0.837-24.062,6.608-27.592,18.799c-0.679,2.341-1.15,4.742-1.709,7.117c-0.411,1.749-1.346,3.062-3.184,3.404
		c-1.914,0.357-3.327-0.478-4.343-2.116c-1.136-1.833-2.272-3.673-3.518-5.431c-3.087-4.357-8.321-5.994-13.602-4.335
		c-5.177,1.627-8.17,5.63-8.255,11.079c-0.037,2.375,0.073,4.758-0.068,7.125c-0.162,2.721-2.502,4.434-4.955,3.555
		c-0.996-0.356-1.838-1.307-2.598-2.127c-1.456-1.571-2.54-3.624-4.245-4.804c-6.159-4.262-14.912-1.129-17.223,6.033
		c-0.478,1.483-0.561,3.102-0.772,4.663c-0.393,2.909-1.385,3.906-4.223,4.181c-0.644,0.063-1.284,0.174-1.928,0.238
		c-4.648,0.462-7.989,2.863-9.731,7.128c-1.796,4.399-1.053,8.631,1.832,12.403c2.427,3.174,5.782,4.25,9.687,4.213
		c5.847-0.056,6.528,0.703,6.528,6.6C806.554,792.389,806.554,800.453,806.554,808.516 M929.262,801.354v86.907
		c0.331,0.08,0.533,0.171,0.735,0.171c7.775,0.006,15.556,0.21,23.322-0.053c8.812-0.297,15.275-6.855,15.359-15.753
		c0.174-18.499,0.186-37.002-0.004-55.501c-0.095-9.244-6.968-15.661-16.257-15.758c-6.19-0.064-12.382-0.014-18.573-0.014H929.262z
		"/>
	<path clip-path="url(#SVGID_5_)" fill="#FFFFFF" d="M893.66,852.636c0-16.481,0-32.963,0.001-49.444
		c0-0.72-0.026-1.442,0.037-2.157c0.178-1.971,1.752-3.485,3.673-3.585c1.841-0.095,3.673,1.356,4.022,3.246
		c0.103,0.559,0.068,1.146,0.068,1.722c0.003,33.61,0.004,67.22,0,100.83c0,2.741-1.073,4.352-3.109,4.73
		c-2.544,0.473-4.59-1.104-4.662-3.739c-0.083-3.021-0.029-6.046-0.03-9.068C893.659,880.991,893.66,866.813,893.66,852.636"/>
	<path clip-path="url(#SVGID_5_)" fill="#FFFFFF" d="M869.886,852.638c0,16.841,0.003,33.683-0.003,50.522
		c-0.002,2.941-1.231,4.623-3.493,4.863c-2.232,0.235-3.962-1.056-4.293-3.273c-0.116-0.777-0.102-1.578-0.102-2.368
		c-0.004-33.034-0.004-66.069-0.002-99.104c0-0.719-0.02-1.443,0.058-2.156c0.23-2.107,1.869-3.66,3.828-3.68
		c1.843-0.018,3.57,1.432,3.921,3.384c0.126,0.699,0.083,1.434,0.083,2.151C869.887,819.531,869.886,836.084,869.886,852.638"/>
	<path clip-path="url(#SVGID_5_)" fill="#FFFFFF" d="M889.713,726.354c12.489,0.067,21.714,11.474,19.275,23.707
		c-0.189,0.943,0.204,2.233,0.771,3.057c2.097,3.042,3.399,6.305,3.52,10.015c0.087,2.662-1.404,4.54-3.71,4.663
		c-2.252,0.122-4.018-1.653-4.127-4.304c-0.118-2.82-1.241-5.134-3.277-7.024c-2.36-2.19-2.569-2.97-1.48-6.052
		c2.383-6.743-0.997-13.744-7.593-15.722c-7.488-2.246-14.878,3.02-15.374,10.955c-0.175,2.789-1.661,4.369-4.042,4.294
		c-2.374-0.075-3.746-1.753-3.723-4.566c0.006-0.647-0.003-1.301,0.081-1.94C871.301,733.703,879.836,726.301,889.713,726.354"/>
	<path clip-path="url(#SVGID_5_)" fill="#FFFFFF" d="M1595.629,752.208c2.203,3.045,4.284,6.188,6.643,9.105
		c2.382,2.944,5.11,5.607,7.532,8.522c0.729,0.877,1.329,2.184,1.331,3.294c0.065,48.093,0.084,96.186-0.045,144.277
		c-0.005,1.955-1.159,4.142-2.349,5.815c-3.576,5.025-8.85,7.822-14.446,10c-7.168,2.789-14.68,4.074-22.302,4.802
		c-9.381,0.895-18.775,0.959-28.168,0.318c-9.797-0.668-19.459-2.082-28.539-6.099c-4.707-2.081-9.01-4.77-12.162-8.974
		c-1.596-2.128-2.437-4.439-2.432-7.213c0.056-47.413,0.05-94.826,0.007-142.238c-0.002-1.922,0.74-3.216,1.941-4.632
		c4.168-4.913,8.163-9.973,12.202-14.994c0.42-0.523,0.699-1.161,1.027-1.756c0.074-0.133,0.074-0.307,0.156-0.678
		c-0.959,0-1.841,0.029-2.719-0.006c-2.379-0.095-4.109-1.943-4.076-4.319c0.033-2.283,1.764-4.077,4.073-4.146
		c1.643-0.049,3.285-0.011,4.929-0.011c26.566,0,53.135-0.001,79.701,0.001c2.709,0.001,4.567,1.503,4.75,3.813
		c0.205,2.591-1.61,4.599-4.235,4.667c-0.791,0.021-1.582,0.004-2.372,0.004C1595.927,751.91,1595.778,752.06,1595.629,752.208
		 M1602.706,845.868c0-21.352-0.143-42.704,0.106-64.053c0.058-4.89-1.05-8.579-4.563-12.128
		c-4.688-4.735-8.685-10.16-11.261-16.426c-0.495-1.202-1.08-1.534-2.343-1.531c-18.235,0.046-36.473,0.106-54.709-0.043
		c-3.024-0.024-5.144,0.291-5.953,3.633c-0.308,1.268-1.153,2.474-1.978,3.534c-3.816,4.91-7.665,9.795-11.612,14.6
		c-0.813,0.99-1.199,1.882-1.199,3.15c0.027,46.157,0.032,92.313-0.014,138.471c-0.001,1.626,0.544,2.833,1.563,3.95
		c2.256,2.479,5.087,4.114,8.108,5.447c7.074,3.121,14.58,4.594,22.212,5.007c8.409,0.455,16.856,0.537,25.278,0.35
		c7.583-0.168,15.091-1.314,22.347-3.685c4.437-1.449,8.666-3.311,12.059-6.668c1.336-1.322,2.01-2.789,2.004-4.797
		C1602.68,891.742,1602.706,868.805,1602.706,845.868"/>
	<path clip-path="url(#SVGID_5_)" fill="#FFFFFF" d="M1557.448,803.895c-30.365,0-53.176-7.029-54.601-7.479l2.496-7.916
		l-1.248,3.958l1.247-3.958c0.505,0.158,51.031,15.674,100.726,0l2.496,7.916C1590.782,802.024,1573.11,803.895,1557.448,803.895"/>
	<path clip-path="url(#SVGID_5_)" fill="#FFFFFF" d="M1557.442,906.457c-6.787,0-14.021-0.484-21.689-1.604
		c-19.68-2.872-32.772-8.538-33.32-8.778l3.328-7.603l-1.664,3.801l1.66-3.803c0.126,0.055,12.811,5.52,31.453,8.208
		c17.058,2.458,42.775,3.031,68.441-8.206l3.329,7.603C1597.308,901.186,1579.834,906.457,1557.442,906.457"/>
	
		<rect x="14.783" y="650.206" clip-path="url(#SVGID_5_)" fill="none" stroke="#FFFFFF" stroke-width="3" stroke-miterlimit="10" width="334" height="334"/>
	
		<rect x="697.866" y="650.206" clip-path="url(#SVGID_5_)" fill="none" stroke="#FFFFFF" stroke-width="3" stroke-miterlimit="10" width="334" height="334"/>
	
		<rect x="1378.908" y="648.206" clip-path="url(#SVGID_5_)" fill="none" stroke="#FFFFFF" stroke-width="3" stroke-miterlimit="10" width="334" height="334"/>
	<path clip-path="url(#SVGID_5_)" fill="#0ABF53" d="M1692.908,1403.098h-294c-11,0-20-9-20-20v-39.449c0-11,9-20,20-20h294
		c11,0,20,9,20,20v39.449C1712.908,1394.098,1703.908,1403.098,1692.908,1403.098"/>
</g>
<text transform="matrix(1 0 0 1 1474.3174 1374.2529)"><tspan x="0" y="0" fill="#FFFFFF" font-family="'Fakt-Blond'" font-size="35">P</tspan><tspan x="18.41" y="0" fill="#FFFFFF" font-family="'Fakt-Blond'" font-size="35">u</tspan><tspan x="37.694" y="0" fill="#FFFFFF" font-family="'Fakt-Blond'" font-size="35">r</tspan><tspan x="48.58" y="0" fill="#FFFFFF" font-family="'Fakt-Blond'" font-size="35">chase</tspan></text>
<text transform="matrix(1 0 0 1 1112.4092 1389.8818)"><tspan x="0" y="0" fill="#FFFFFF" font-family="'Fakt-Blond'" font-size="40" letter-spacing="-5">T</tspan><tspan x="14.8" y="0" fill="#FFFFFF" font-family="'Fakt-Blond'" font-size="40">o</tspan><tspan x="36.76" y="0" fill="#FFFFFF" font-family="'Fakt-Blond'" font-size="40">t</tspan><tspan x="50.239" y="0" fill="#FFFFFF" font-family="'Fakt-Blond'" font-size="40">al</tspan></text>
<text transform="matrix(1 0 0 1 1195.168 1389.8818)" fill="#FFFFFF" font-family="'Fakt-Blond'" font-size="50.9546"> </text>
<text transform="matrix(1 0 0 1 1206.1729 1389.8818)" fill="#FFFFFF" font-family="'Fakt-SemiBold'" font-size="65.5131">$0</text>
</svg>
