<?xml version="1.0" encoding="utf-8"?>
<!-- Generator: Adobe Illustrator 16.0.0, SVG Export Plug-In . SVG Version: 6.00 Build 0)  -->
<!DOCTYPE svg PUBLIC "-//W3C//DTD SVG 1.1//EN" "http://www.w3.org/Graphics/SVG/1.1/DTD/svg11.dtd">
<svg version="1.1" id="Layer_1" xmlns="http://www.w3.org/2000/svg" xmlns:xlink="http://www.w3.org/1999/xlink" x="0px" y="0px"
	 width="170.08px" height="170.08px" viewBox="0 0 170.08 170.08" enable-background="new 0 0 170.08 170.08" xml:space="preserve">
<path d="M149.119,168.057H20.689c-10.414,0-18.888-8.473-18.888-18.887V20.738c0-10.414,8.475-18.887,18.888-18.887h128.43
	c10.415,0,18.888,8.473,18.888,18.887V149.17C168.007,159.584,159.534,168.057,149.119,168.057 M20.689,9.406
	c-6.249,0-11.333,5.083-11.333,11.332V149.17c0,6.248,5.084,11.331,11.333,11.331h128.43c6.25,0,11.334-5.083,11.334-11.331V20.738
	c0-6.25-5.084-11.332-11.334-11.332H20.689z M83.936,105.264c-11.199,0-20.311-9.113-20.311-20.31
	c0-11.198,9.112-20.31,20.311-20.31c11.199,0,20.307,9.111,20.307,20.31C104.243,96.15,95.135,105.264,83.936,105.264
	 M83.936,72.198c-7.034,0-12.756,5.723-12.756,12.756c0,7.031,5.722,12.755,12.756,12.755c7.032,0,12.753-5.724,12.753-12.755
	C96.689,77.921,90.968,72.198,83.936,72.198 M83.936,81.647c-1.825,0-3.306,1.48-3.306,3.307c0,1.825,1.48,3.305,3.306,3.305
	c1.826,0,3.305-1.479,3.305-3.305C87.241,83.128,85.762,81.647,83.936,81.647 M141.305,155.464c-6.942,0-12.591-5.648-12.591-12.59
	c0-6.942,5.648-12.592,12.591-12.592s12.589,5.649,12.589,12.592C153.894,149.815,148.247,155.464,141.305,155.464 M141.305,137.837
	c-2.777,0-5.035,2.258-5.035,5.037c0,2.775,2.258,5.035,5.035,5.035c2.776,0,5.035-2.26,5.035-5.035
	C146.34,140.095,144.081,137.837,141.305,137.837 M145.342,17.432h-16.456c-3.123,0-5.666,2.542-5.666,5.667v6.138
	c0,3.125,2.543,5.666,5.666,5.666h4.369l-1.81,11.613c-11.222-13.84-28.346-22.708-47.509-22.708
	c-33.717,0-61.147,27.431-61.147,61.147c0,33.716,27.43,61.145,61.147,61.145c33.716,0,61.148-27.429,61.148-61.145
	c0-10.566-2.695-20.513-7.433-29.192l3.196-20.515c0.018-0.116,0.012-0.229,0.018-0.345h4.477c3.126,0,5.666-2.541,5.666-5.666
	v-6.138C151.008,19.975,148.468,17.432,145.342,17.432 M83.936,138.545c-29.551,0-53.592-24.041-53.592-53.591
	c0-29.553,24.041-53.592,53.592-53.592c19.407,0,36.436,10.367,45.84,25.854l-2.203,14.138c-0.238,1.545-0.784,2.999-1.618,4.314
	l-13.337,21.081c-1.109-0.627-2.379-0.884-3.656-0.687c-1.497,0.236-2.813,1.04-3.698,2.264l-10.963,15.065
	c-0.893,1.225-1.252,2.722-1.019,4.218c0.237,1.494,1.042,2.808,2.268,3.698l4.961,3.611c0.98,0.715,2.134,1.088,3.322,1.088
	c0.297,0,0.6-0.023,0.896-0.072c1.499-0.236,2.811-1.042,3.696-2.263l10.963-15.067c0.892-1.223,1.252-2.72,1.019-4.215
	c-0.195-1.232-0.791-2.325-1.673-3.175l13.606-21.507c1.387-2.197,2.297-4.614,2.698-7.189l0.378-2.42
	c1.364,4.721,2.112,9.701,2.112,14.856C137.529,114.504,113.487,138.545,83.936,138.545 M112.168,105.688l-8.74,12.012l-1.908-1.388
	l8.741-12.014L112.168,105.688z M143.454,27.347h-12.678v-2.36h12.678V27.347z"/>
</svg>
